<svg xmlns="http://www.w3.org/2000/svg" xmlns:xlink="http://www.w3.org/1999/xlink" width="227" zoomAndPan="magnify" viewBox="0 0 170.25 170.250002" height="227" preserveAspectRatio="xMidYMid meet" version="1.0"><defs><g/><clipPath id="1b27844916"><path d="M 1.070312 1.070312 L 168.429688 1.070312 L 168.429688 168.429688 L 1.070312 168.429688 Z M 1.070312 1.070312 " clip-rule="nonzero"/></clipPath><clipPath id="01e7787047"><path d="M 84.75 1.070312 C 38.535156 1.070312 1.070312 38.535156 1.070312 84.75 C 1.070312 130.964844 38.535156 168.429688 84.75 168.429688 C 130.964844 168.429688 168.429688 130.964844 168.429688 84.75 C 168.429688 38.535156 130.964844 1.070312 84.75 1.070312 Z M 84.75 1.070312 " clip-rule="nonzero"/></clipPath><clipPath id="92fb8663a7"><path d="M 0.0703125 0.0703125 L 167.429688 0.0703125 L 167.429688 167.429688 L 0.0703125 167.429688 Z M 0.0703125 0.0703125 " clip-rule="nonzero"/></clipPath><clipPath id="1b4babb093"><path d="M 83.75 0.0703125 C 37.535156 0.0703125 0.0703125 37.535156 0.0703125 83.75 C 0.0703125 129.964844 37.535156 167.429688 83.75 167.429688 C 129.964844 167.429688 167.429688 129.964844 167.429688 83.75 C 167.429688 37.535156 129.964844 0.0703125 83.75 0.0703125 Z M 83.75 0.0703125 " clip-rule="nonzero"/></clipPath><clipPath id="3f936f3c9d"><rect x="0" width="168" y="0" height="168"/></clipPath><clipPath id="39e12620ea"><path d="M 2.925781 2.925781 L 166.578125 2.925781 L 166.578125 166.578125 L 2.925781 166.578125 Z M 2.925781 2.925781 " clip-rule="nonzero"/></clipPath><clipPath id="94c41b7663"><path d="M 84.75 2.925781 C 39.5625 2.925781 2.925781 39.5625 2.925781 84.75 C 2.925781 129.941406 39.5625 166.578125 84.75 166.578125 C 129.941406 166.578125 166.578125 129.941406 166.578125 84.75 C 166.578125 39.5625 129.941406 2.925781 84.75 2.925781 Z M 84.75 2.925781 " clip-rule="nonzero"/></clipPath><clipPath id="5371154e38"><path d="M 0.925781 0.925781 L 164.578125 0.925781 L 164.578125 164.578125 L 0.925781 164.578125 Z M 0.925781 0.925781 " clip-rule="nonzero"/></clipPath><clipPath id="399e9a7415"><path d="M 82.75 0.925781 C 37.5625 0.925781 0.925781 37.5625 0.925781 82.75 C 0.925781 127.941406 37.5625 164.578125 82.75 164.578125 C 127.941406 164.578125 164.578125 127.941406 164.578125 82.75 C 164.578125 37.5625 127.941406 0.925781 82.75 0.925781 Z M 82.75 0.925781 " clip-rule="nonzero"/></clipPath><clipPath id="d544dbbb0a"><rect x="0" width="165" y="0" height="165"/></clipPath><clipPath id="7a043e60cd"><path d="M 19.046875 19.046875 L 150.457031 19.046875 L 150.457031 150.457031 L 19.046875 150.457031 Z M 19.046875 19.046875 " clip-rule="nonzero"/></clipPath><clipPath id="8c63ffe3de"><path d="M 84.75 19.046875 C 48.464844 19.046875 19.046875 48.464844 19.046875 84.75 C 19.046875 121.039062 48.464844 150.457031 84.75 150.457031 C 121.039062 150.457031 150.457031 121.039062 150.457031 84.75 C 150.457031 48.464844 121.039062 19.046875 84.75 19.046875 Z M 84.75 19.046875 " clip-rule="nonzero"/></clipPath><clipPath id="15be9c5cd4"><path d="M 0.046875 0.046875 L 131.457031 0.046875 L 131.457031 131.457031 L 0.046875 131.457031 Z M 0.046875 0.046875 " clip-rule="nonzero"/></clipPath><clipPath id="24eec326df"><path d="M 65.75 0.046875 C 29.464844 0.046875 0.046875 29.464844 0.046875 65.75 C 0.046875 102.039062 29.464844 131.457031 65.75 131.457031 C 102.039062 131.457031 131.457031 102.039062 131.457031 65.75 C 131.457031 29.464844 102.039062 0.046875 65.75 0.046875 Z M 65.75 0.046875 " clip-rule="nonzero"/></clipPath><clipPath id="a82fef11ad"><rect x="0" width="132" y="0" height="132"/></clipPath><clipPath id="982ef63525"><rect x="0" width="150" y="0" height="56"/></clipPath><clipPath id="2b8c6ece1c"><path d="M 22.542969 38.5625 L 146.625 38.5625 L 146.625 146.195312 L 22.542969 146.195312 Z M 22.542969 38.5625 " clip-rule="nonzero"/></clipPath><clipPath id="4e6c211075"><path d="M 150 76 L 165 76 L 165 101 L 150 101 Z M 150 76 " clip-rule="nonzero"/></clipPath><clipPath id="4662671b75"><path d="M 143.65625 93.546875 L 156.617188 73.445312 L 168.550781 81.140625 L 155.589844 101.242188 Z M 143.65625 93.546875 " clip-rule="nonzero"/></clipPath><clipPath id="032918dfa5"><path d="M 143.65625 93.546875 L 156.617188 73.445312 L 168.550781 81.140625 L 155.589844 101.242188 Z M 143.65625 93.546875 " clip-rule="nonzero"/></clipPath><clipPath id="02c35a0b7d"><rect x="0" width="144" y="0" height="51"/></clipPath><clipPath id="58cfe10ed6"><path d="M 1 70 L 27 70 L 27 99 L 1 99 Z M 1 70 " clip-rule="nonzero"/></clipPath><clipPath id="e61ba0dbab"><path d="M 13.070312 70.808594 L 26.027344 90.914062 L 14.089844 98.605469 L 1.132812 78.503906 Z M 13.070312 70.808594 " clip-rule="nonzero"/></clipPath><clipPath id="080699a6ef"><path d="M 3 4 L 19 4 L 19 28 L 3 28 Z M 3 4 " clip-rule="nonzero"/></clipPath><clipPath id="9149cfcbfd"><path d="M 12.070312 0.808594 L 25.027344 20.914062 L 13.089844 28.605469 L 0.132812 8.503906 Z M 12.070312 0.808594 " clip-rule="nonzero"/></clipPath><clipPath id="cda16e1297"><path d="M 24.835938 20.621094 L 11.878906 0.515625 L -0.0585938 8.207031 L 12.898438 28.3125 Z M 24.835938 20.621094 " clip-rule="nonzero"/></clipPath><clipPath id="a33a63f7a1"><rect x="0" width="26" y="0" height="29"/></clipPath><clipPath id="ca3c5c5a35"><path d="M 44.523438 86 L 125 86 L 125 127.980469 L 44.523438 127.980469 Z M 44.523438 86 " clip-rule="nonzero"/></clipPath><clipPath id="e70640140a"><path d="M 72 59.960938 L 97 59.960938 L 97 100 L 72 100 Z M 72 59.960938 " clip-rule="nonzero"/></clipPath><clipPath id="81555eadcc"><rect x="0" width="58" y="0" height="21"/></clipPath><clipPath id="0c67b97760"><rect x="0" width="169" y="0" height="169"/></clipPath></defs><g transform="matrix(1, 0, 0, 1, 0, -0.000000000000000666)"><g clip-path="url(#0c67b97760)"><g clip-path="url(#1b27844916)"><g clip-path="url(#01e7787047)"><g transform="matrix(1, 0, 0, 1, 1, 1)"><g clip-path="url(#3f936f3c9d)"><g clip-path="url(#92fb8663a7)"><g clip-path="url(#1b4babb093)"><path fill="#ffffff" d="M 0.0703125 0.0703125 L 167.429688 0.0703125 L 167.429688 167.429688 L 0.0703125 167.429688 Z M 0.0703125 0.0703125 " fill-opacity="1" fill-rule="nonzero"/></g></g></g></g></g></g><g clip-path="url(#39e12620ea)"><g clip-path="url(#94c41b7663)"><g transform="matrix(1, 0, 0, 1, 2, 2)"><g clip-path="url(#d544dbbb0a)"><g clip-path="url(#5371154e38)"><g clip-path="url(#399e9a7415)"><path fill="#000000" d="M 0.925781 0.925781 L 164.578125 0.925781 L 164.578125 164.578125 L 0.925781 164.578125 Z M 0.925781 0.925781 " fill-opacity="1" fill-rule="nonzero"/></g></g></g></g></g></g><g clip-path="url(#7a043e60cd)"><g clip-path="url(#8c63ffe3de)"><g transform="matrix(1, 0, 0, 1, 19, 19)"><g clip-path="url(#a82fef11ad)"><g clip-path="url(#15be9c5cd4)"><g clip-path="url(#24eec326df)"><path fill="#142143" d="M 0.046875 0.046875 L 131.457031 0.046875 L 131.457031 131.457031 L 0.046875 131.457031 Z M 0.046875 0.046875 " fill-opacity="1" fill-rule="nonzero"/></g></g></g></g></g></g><g transform="matrix(1, 0, 0, 1, 10, 5)"><g clip-path="url(#982ef63525)"><g fill="#ffffff" fill-opacity="1"><g transform="translate(7.748223, 54.10717)"><g><path d="M -1.390625 -5.546875 L -3.359375 -6.453125 L -2.875 -7.484375 L 2.34375 -5.078125 L 1.859375 -4.046875 L -0.515625 -5.140625 L -1.59375 -2.796875 L 0.78125 -1.703125 L 0.3125 -0.6875 L -4.90625 -3.09375 L -4.4375 -4.109375 L -2.46875 -3.203125 Z M -1.390625 -5.546875 "/></g></g></g><g fill="#ffffff" fill-opacity="1"><g transform="translate(10.375871, 48.524849)"><g><path d="M 0.890625 -1.65625 L 0.359375 -0.65625 L -4.703125 -3.375 L -4.171875 -4.375 Z M 0.890625 -1.65625 "/></g></g></g><g fill="#ffffff" fill-opacity="1"><g transform="translate(11.456798, 46.326784)"><g><path d="M 0.9375 -1.515625 L 0.390625 -0.640625 L -4.484375 -3.6875 L -3.6875 -4.9375 L 0.671875 -3.921875 L 0.71875 -3.984375 L -2.109375 -7.46875 L -1.34375 -8.6875 L 3.53125 -5.640625 L 2.96875 -4.75 L -0.25 -6.765625 L -0.328125 -6.671875 L 2.203125 -3.53125 L 1.703125 -2.734375 L -2.234375 -3.625 L -2.28125 -3.53125 Z M 0.9375 -1.515625 "/></g></g></g><g fill="#ffffff" fill-opacity="1"><g transform="translate(15.289571, 40.256979)"><g><path d="M -2.828125 -5.828125 C -2.585938 -6.148438 -2.316406 -6.378906 -2.015625 -6.515625 C -1.710938 -6.660156 -1.410156 -6.710938 -1.109375 -6.671875 C -0.804688 -6.628906 -0.507812 -6.5 -0.21875 -6.28125 C 0.0703125 -6.070312 0.28125 -5.820312 0.40625 -5.53125 C 0.53125 -5.25 0.5625 -4.945312 0.5 -4.625 C 0.445312 -4.300781 0.300781 -3.976562 0.0625 -3.65625 L -0.59375 -2.78125 L 1.125 -1.5 L 0.453125 -0.59375 L -4.15625 -4.046875 Z M -0.75 -4.078125 C -0.375 -4.585938 -0.425781 -5.019531 -0.90625 -5.375 C -1.382812 -5.738281 -1.8125 -5.664062 -2.1875 -5.15625 L -2.75 -4.40625 L -1.3125 -3.328125 Z M -0.75 -4.078125 "/></g></g></g><g fill="#ffffff" fill-opacity="1"><g transform="translate(18.291643, 36.2094)"><g><path d="M 2.0625 -2.25 C 1.539062 -1.65625 1.015625 -1.335938 0.484375 -1.296875 C -0.046875 -1.253906 -0.59375 -1.476562 -1.15625 -1.96875 L -3.859375 -4.328125 L -3.125 -5.15625 L -0.421875 -2.796875 C -0.109375 -2.515625 0.1875 -2.378906 0.46875 -2.390625 C 0.757812 -2.410156 1.039062 -2.578125 1.3125 -2.890625 C 1.851562 -3.503906 1.8125 -4.085938 1.1875 -4.640625 L -1.515625 -7 L -0.796875 -7.828125 L 1.90625 -5.46875 C 2.46875 -4.976562 2.765625 -4.46875 2.796875 -3.9375 C 2.828125 -3.40625 2.582031 -2.84375 2.0625 -2.25 Z M 2.0625 -2.25 "/></g></g></g><g fill="#ffffff" fill-opacity="1"><g transform="translate(22.137613, 31.786639)"><g><path d="M 1.328125 -1.28125 L 0.53125 -0.515625 L -3.46875 -4.640625 L -2.53125 -5.546875 L 1.703125 -4.5 L 1.765625 -4.578125 L -0.796875 -7.21875 L -0.015625 -7.984375 L 3.984375 -3.859375 L 3.15625 -3.0625 L -1.359375 -4.1875 L -1.40625 -4.109375 Z M 1.328125 -1.28125 "/></g></g></g><g fill="#ffffff" fill-opacity="1"><g transform="translate(26.502872, 27.55866)"><g><path d="M 4.25 -3.515625 L 3.328125 -2.75 L 2.15625 -3.5 L 0.453125 -2.09375 L 0.96875 -0.796875 L 0.078125 -0.0625 L -2.078125 -5.765625 L -0.953125 -6.6875 Z M -0.78125 -5.25 L 0.078125 -3.015625 L 1.296875 -4.03125 L -0.71875 -5.296875 Z M -0.78125 -5.25 "/></g></g></g><g fill="#ffffff" fill-opacity="1"><g transform="translate(30.633082, 24.112138)"><g><path d="M 1.515625 -1.0625 L 0.609375 -0.4375 L -2.6875 -5.140625 L -1.625 -5.875 L 2.390625 -4.171875 L 2.453125 -4.25 L 0.34375 -7.265625 L 1.25 -7.890625 L 4.546875 -3.1875 L 3.59375 -2.515625 L -0.6875 -4.34375 L -0.75 -4.28125 Z M 1.515625 -1.0625 "/></g></g></g><g fill="#ffffff" fill-opacity="1"><g transform="translate(35.692864, 20.62819)"><g/></g></g><g fill="#ffffff" fill-opacity="1"><g transform="translate(37.110989, 19.637729)"><g><path d="M 1.5625 -0.84375 L 0.65625 -0.359375 L -2.078125 -5.421875 L -0.765625 -6.125 L 2.53125 -3.078125 L 2.59375 -3.125 L 1.859375 -7.546875 L 3.125 -8.234375 L 5.859375 -3.171875 L 4.921875 -2.65625 L 3.109375 -6 L 3.015625 -5.96875 L 3.65625 -1.984375 L 2.828125 -1.53125 L -0.15625 -4.265625 L -0.25 -4.1875 Z M 1.5625 -0.84375 "/></g></g></g><g fill="#ffffff" fill-opacity="1"><g transform="translate(43.433295, 16.251977)"><g><path d="M 5.0625 -2.1875 L 3.953125 -1.71875 L 3.03125 -2.765625 L 1.015625 -1.890625 L 1.140625 -0.5 L 0.09375 -0.03125 L -0.375 -6.109375 L 0.953125 -6.6875 Z M 0.703125 -5.265625 L 0.921875 -2.890625 L 2.375 -3.515625 L 0.78125 -5.296875 Z M 0.703125 -5.265625 "/></g></g></g><g fill="#ffffff" fill-opacity="1"><g transform="translate(48.358745, 14.091375)"><g><path d="M 3.0625 -4.828125 L 2.359375 -6.875 L 3.4375 -7.25 L 5.296875 -1.8125 L 4.21875 -1.4375 L 3.375 -3.90625 L 0.9375 -3.078125 L 1.78125 -0.609375 L 0.703125 -0.25 L -1.15625 -5.6875 L -0.078125 -6.046875 L 0.625 -4 Z M 3.0625 -4.828125 "/></g></g></g><g fill="#ffffff" fill-opacity="1"><g transform="translate(54.146611, 12.115853)"><g><path d="M 5.34375 -1.359375 L 4.171875 -1.0625 L 3.4375 -2.25 L 1.3125 -1.703125 L 1.21875 -0.3125 L 0.09375 -0.015625 L 0.59375 -6.09375 L 2 -6.453125 Z M 1.53125 -5.078125 L 1.359375 -2.6875 L 2.90625 -3.09375 L 1.609375 -5.109375 Z M 1.53125 -5.078125 "/></g></g></g><g fill="#ffffff" fill-opacity="1"><g transform="translate(59.381953, 10.781543)"><g><path d="M 2.515625 -0.375 C 2.128906 -0.300781 1.769531 -0.285156 1.4375 -0.328125 C 1.113281 -0.378906 0.835938 -0.457031 0.609375 -0.5625 C 0.378906 -0.675781 0.195312 -0.828125 0.0625 -1.015625 L 0.53125 -1.859375 L 0.625 -1.875 C 0.84375 -1.664062 1.097656 -1.507812 1.390625 -1.40625 C 1.679688 -1.300781 2 -1.28125 2.34375 -1.34375 C 2.644531 -1.394531 2.859375 -1.5 2.984375 -1.65625 C 3.109375 -1.8125 3.148438 -2 3.109375 -2.21875 C 3.085938 -2.351562 3.046875 -2.460938 2.984375 -2.546875 C 2.921875 -2.628906 2.828125 -2.691406 2.703125 -2.734375 C 2.578125 -2.773438 2.410156 -2.804688 2.203125 -2.828125 L 1.453125 -2.828125 C 0.921875 -2.859375 0.503906 -2.984375 0.203125 -3.203125 C -0.0859375 -3.429688 -0.269531 -3.765625 -0.34375 -4.203125 C -0.40625 -4.515625 -0.378906 -4.804688 -0.265625 -5.078125 C -0.148438 -5.347656 0.046875 -5.578125 0.328125 -5.765625 C 0.609375 -5.960938 0.957031 -6.097656 1.375 -6.171875 C 1.820312 -6.253906 2.207031 -6.265625 2.53125 -6.203125 C 2.863281 -6.148438 3.15625 -6.023438 3.40625 -5.828125 L 3 -4.953125 L 2.90625 -4.9375 C 2.707031 -5.070312 2.5 -5.164062 2.28125 -5.21875 C 2.0625 -5.269531 1.816406 -5.269531 1.546875 -5.21875 C 1.242188 -5.164062 1.019531 -5.066406 0.875 -4.921875 C 0.738281 -4.785156 0.6875 -4.625 0.71875 -4.4375 C 0.75 -4.257812 0.832031 -4.125 0.96875 -4.03125 C 1.101562 -3.945312 1.316406 -3.898438 1.609375 -3.890625 L 2.375 -3.875 C 2.945312 -3.863281 3.378906 -3.742188 3.671875 -3.515625 C 3.972656 -3.285156 4.164062 -2.941406 4.25 -2.484375 C 4.3125 -2.140625 4.289062 -1.820312 4.1875 -1.53125 C 4.082031 -1.25 3.890625 -1.003906 3.609375 -0.796875 C 3.328125 -0.597656 2.960938 -0.457031 2.515625 -0.375 Z M 2.515625 -0.375 "/></g></g></g><g fill="#ffffff" fill-opacity="1"><g transform="translate(64.101464, 9.947189)"><g><path d="M 1.859375 -0.25 L 0.75 -0.09375 L 0 -5.796875 L 1.109375 -5.953125 Z M 1.859375 -0.25 "/></g></g></g><g fill="#ffffff" fill-opacity="1"><g transform="translate(66.568004, 9.591864)"><g><path d="M 2.53125 -0.125 C 2.144531 -0.09375 1.789062 -0.113281 1.46875 -0.1875 C 1.15625 -0.257812 0.882812 -0.363281 0.65625 -0.5 C 0.4375 -0.644531 0.269531 -0.8125 0.15625 -1 L 0.71875 -1.796875 L 0.8125 -1.8125 C 1.007812 -1.570312 1.242188 -1.382812 1.515625 -1.25 C 1.796875 -1.125 2.109375 -1.078125 2.453125 -1.109375 C 2.753906 -1.128906 2.976562 -1.207031 3.125 -1.34375 C 3.269531 -1.488281 3.335938 -1.675781 3.328125 -1.90625 C 3.316406 -2.039062 3.28125 -2.148438 3.21875 -2.234375 C 3.15625 -2.328125 3.0625 -2.398438 2.9375 -2.453125 C 2.820312 -2.503906 2.664062 -2.550781 2.46875 -2.59375 L 1.734375 -2.671875 C 1.203125 -2.753906 0.800781 -2.921875 0.53125 -3.171875 C 0.257812 -3.421875 0.109375 -3.765625 0.078125 -4.203125 C 0.046875 -4.523438 0.0976562 -4.816406 0.234375 -5.078125 C 0.378906 -5.347656 0.601562 -5.5625 0.90625 -5.71875 C 1.207031 -5.875 1.566406 -5.972656 1.984375 -6.015625 C 2.429688 -6.046875 2.816406 -6.015625 3.140625 -5.921875 C 3.460938 -5.835938 3.742188 -5.675781 3.984375 -5.4375 L 3.484375 -4.640625 L 3.390625 -4.625 C 3.210938 -4.78125 3.015625 -4.894531 2.796875 -4.96875 C 2.578125 -5.039062 2.332031 -5.066406 2.0625 -5.046875 C 1.757812 -5.015625 1.53125 -4.9375 1.375 -4.8125 C 1.226562 -4.695312 1.160156 -4.539062 1.171875 -4.34375 C 1.191406 -4.164062 1.257812 -4.023438 1.375 -3.921875 C 1.5 -3.816406 1.707031 -3.75 2 -3.71875 L 2.75 -3.609375 C 3.320312 -3.546875 3.742188 -3.382812 4.015625 -3.125 C 4.285156 -2.875 4.4375 -2.519531 4.46875 -2.0625 C 4.5 -1.707031 4.445312 -1.390625 4.3125 -1.109375 C 4.175781 -0.828125 3.957031 -0.597656 3.65625 -0.421875 C 3.351562 -0.253906 2.976562 -0.15625 2.53125 -0.125 Z M 2.53125 -0.125 "/></g></g></g><g fill="#ffffff" fill-opacity="1"><g transform="translate(71.254974, 9.154431)"><g><path d="M 2.75 0.015625 L 1.46875 0 L 0.171875 -5.75 L 1.296875 -5.75 L 2.15625 -1.703125 L 2.25 -1.703125 L 3.296875 -5.734375 L 4.265625 -5.734375 L 5.296875 -1.6875 L 5.40625 -1.6875 L 6.296875 -5.734375 L 7.375 -5.734375 L 6.0625 0.015625 L 4.78125 0.015625 L 3.796875 -3.6875 L 3.703125 -3.6875 Z M 2.75 0.015625 "/></g></g></g><g fill="#ffffff" fill-opacity="1"><g transform="translate(78.531042, 9.208585)"><g><path d="M 5.5 0.5 L 4.296875 0.390625 L 4 -0.984375 L 1.8125 -1.171875 L 1.25 0.109375 L 0.09375 0.015625 L 2.578125 -5.53125 L 4.03125 -5.40625 Z M 3.125 -4.28125 L 2.171875 -2.09375 L 3.765625 -1.9375 L 3.21875 -4.28125 Z M 3.125 -4.28125 "/></g></g></g><g fill="#ffffff" fill-opacity="1"><g transform="translate(83.962146, 9.743337)"><g/></g></g><g fill="#ffffff" fill-opacity="1"><g transform="translate(85.720641, 9.954179)"><g><path d="M 2.484375 0.546875 C 2.097656 0.472656 1.757812 0.359375 1.46875 0.203125 C 1.1875 0.046875 0.957031 -0.125 0.78125 -0.3125 C 0.601562 -0.5 0.484375 -0.703125 0.421875 -0.921875 L 1.15625 -1.546875 L 1.25 -1.53125 C 1.382812 -1.257812 1.566406 -1.019531 1.796875 -0.8125 C 2.035156 -0.613281 2.328125 -0.484375 2.671875 -0.421875 C 2.972656 -0.367188 3.207031 -0.390625 3.375 -0.484375 C 3.550781 -0.578125 3.660156 -0.734375 3.703125 -0.953125 C 3.734375 -1.085938 3.726562 -1.207031 3.6875 -1.3125 C 3.65625 -1.414062 3.585938 -1.503906 3.484375 -1.578125 C 3.390625 -1.660156 3.25 -1.742188 3.0625 -1.828125 L 2.375 -2.125 C 1.882812 -2.34375 1.539062 -2.609375 1.34375 -2.921875 C 1.15625 -3.234375 1.097656 -3.601562 1.171875 -4.03125 C 1.234375 -4.351562 1.363281 -4.617188 1.5625 -4.828125 C 1.769531 -5.046875 2.039062 -5.191406 2.375 -5.265625 C 2.707031 -5.347656 3.082031 -5.351562 3.5 -5.28125 C 3.945312 -5.195312 4.3125 -5.066406 4.59375 -4.890625 C 4.882812 -4.722656 5.109375 -4.492188 5.265625 -4.203125 L 4.578125 -3.5625 L 4.484375 -3.578125 C 4.347656 -3.773438 4.1875 -3.9375 4 -4.0625 C 3.8125 -4.1875 3.582031 -4.273438 3.3125 -4.328125 C 3.007812 -4.378906 2.769531 -4.363281 2.59375 -4.28125 C 2.414062 -4.207031 2.304688 -4.070312 2.265625 -3.875 C 2.234375 -3.707031 2.265625 -3.554688 2.359375 -3.421875 C 2.453125 -3.296875 2.628906 -3.175781 2.890625 -3.0625 L 3.609375 -2.765625 C 4.140625 -2.546875 4.5 -2.273438 4.6875 -1.953125 C 4.882812 -1.628906 4.941406 -1.242188 4.859375 -0.796875 C 4.796875 -0.453125 4.660156 -0.164062 4.453125 0.0625 C 4.242188 0.289062 3.972656 0.445312 3.640625 0.53125 C 3.304688 0.625 2.921875 0.628906 2.484375 0.546875 Z M 2.484375 0.546875 "/></g></g></g><g fill="#ffffff" fill-opacity="1"><g transform="translate(90.426349, 10.863329)"><g><path d="M 1.828125 0.4375 L 0.734375 0.171875 L 2.078125 -5.421875 L 3.171875 -5.15625 Z M 1.828125 0.4375 "/></g></g></g><g fill="#ffffff" fill-opacity="1"><g transform="translate(92.856726, 11.414638)"><g><path d="M 2.421875 0.796875 C 2.046875 0.679688 1.71875 0.53125 1.4375 0.34375 C 1.164062 0.164062 0.953125 -0.0234375 0.796875 -0.234375 C 0.640625 -0.441406 0.539062 -0.65625 0.5 -0.875 L 1.3125 -1.40625 L 1.40625 -1.390625 C 1.507812 -1.097656 1.664062 -0.84375 1.875 -0.625 C 2.082031 -0.414062 2.351562 -0.257812 2.6875 -0.15625 C 2.976562 -0.0703125 3.21875 -0.0664062 3.40625 -0.140625 C 3.59375 -0.210938 3.71875 -0.359375 3.78125 -0.578125 C 3.820312 -0.703125 3.828125 -0.816406 3.796875 -0.921875 C 3.773438 -1.035156 3.71875 -1.132812 3.625 -1.21875 C 3.539062 -1.3125 3.410156 -1.414062 3.234375 -1.53125 L 2.578125 -1.875 C 2.109375 -2.144531 1.789062 -2.445312 1.625 -2.78125 C 1.46875 -3.113281 1.453125 -3.488281 1.578125 -3.90625 C 1.660156 -4.21875 1.816406 -4.46875 2.046875 -4.65625 C 2.273438 -4.851562 2.554688 -4.972656 2.890625 -5.015625 C 3.222656 -5.054688 3.597656 -5.015625 4.015625 -4.890625 C 4.441406 -4.765625 4.785156 -4.601562 5.046875 -4.40625 C 5.316406 -4.207031 5.523438 -3.957031 5.671875 -3.65625 L 4.921875 -3.09375 L 4.828125 -3.109375 C 4.710938 -3.316406 4.566406 -3.488281 4.390625 -3.625 C 4.222656 -3.769531 4.007812 -3.878906 3.75 -3.953125 C 3.445312 -4.046875 3.203125 -4.0625 3.015625 -4 C 2.828125 -3.945312 2.707031 -3.828125 2.65625 -3.640625 C 2.601562 -3.472656 2.613281 -3.316406 2.6875 -3.171875 C 2.769531 -3.035156 2.9375 -2.898438 3.1875 -2.765625 L 3.859375 -2.390625 C 4.367188 -2.128906 4.703125 -1.828125 4.859375 -1.484375 C 5.023438 -1.140625 5.039062 -0.75 4.90625 -0.3125 C 4.8125 0.03125 4.648438 0.304688 4.421875 0.515625 C 4.191406 0.722656 3.910156 0.851562 3.578125 0.90625 C 3.242188 0.957031 2.859375 0.921875 2.421875 0.796875 Z M 2.421875 0.796875 "/></g></g></g><g fill="#ffffff" fill-opacity="1"><g transform="translate(97.418581, 12.753625)"><g><path d="M 6.296875 -3.828125 L 5.96875 -2.921875 L 4.40625 -3.484375 L 2.765625 1.015625 L 1.703125 0.625 L 3.34375 -3.875 L 1.78125 -4.453125 L 2.109375 -5.359375 Z M 6.296875 -3.828125 "/></g></g></g><g fill="#ffffff" fill-opacity="1"><g transform="translate(101.72389, 14.319959)"><g><path d="M 2.734375 -1.546875 L 2.109375 -0.125 L 4.625 0.984375 L 4.234375 1.859375 L 0.6875 0.296875 L 3 -4.96875 L 6.484375 -3.421875 L 6.109375 -2.546875 L 3.65625 -3.640625 L 3.109375 -2.40625 L 5.25 -1.453125 L 4.875 -0.59375 Z M 2.734375 -1.546875 "/></g></g></g><g fill="#ffffff" fill-opacity="1"><g transform="translate(106.060052, 16.165701)"><g><path d="M 1.5625 0.84375 L 0.65625 0.359375 L 3.40625 -4.6875 L 4.71875 -3.984375 L 3.953125 0.4375 L 4.03125 0.46875 L 7.34375 -2.5625 L 8.59375 -1.875 L 5.84375 3.171875 L 4.921875 2.671875 L 6.734375 -0.671875 L 6.625 -0.734375 L 3.65625 1.984375 L 2.828125 1.53125 L 3.46875 -2.4375 L 3.375 -2.5 Z M 1.5625 0.84375 "/></g></g></g><g fill="#ffffff" fill-opacity="1"><g transform="translate(112.382134, 19.69012)"><g/></g></g><g fill="#ffffff" fill-opacity="1"><g transform="translate(113.922777, 20.64616)"><g><path d="M 1.5625 1.046875 L 0.625 0.421875 L 3.828125 -4.359375 L 4.765625 -3.734375 Z M 1.5625 1.046875 "/></g></g></g><g fill="#ffffff" fill-opacity="1"><g transform="translate(116.006882, 21.968877)"><g><path d="M 1.46875 1.109375 L 0.59375 0.453125 L 4.0625 -4.125 L 5.09375 -3.34375 L 4.703125 1.015625 L 4.796875 1.046875 L 7.015625 -1.890625 L 7.890625 -1.21875 L 4.421875 3.359375 L 3.5 2.65625 L 3.9375 -1.984375 L 3.84375 -2.03125 Z M 1.46875 1.109375 "/></g></g></g><g fill="#ffffff" fill-opacity="1"><g transform="translate(120.848566, 25.669403)"><g><path d="M 7.09375 -1.40625 L 6.46875 -0.6875 L 4.578125 -2.359375 L 3.5625 -1.21875 L 5.28125 0.296875 L 4.65625 1 L 2.9375 -0.515625 L 1.40625 1.234375 L 0.5625 0.5 L 4.359375 -3.8125 Z M 7.09375 -1.40625 "/></g></g></g><g fill="#ffffff" fill-opacity="1"><g transform="translate(124.208589, 28.576277)"><g><path d="M 2.125 2.296875 C 1.757812 1.921875 1.515625 1.515625 1.390625 1.078125 C 1.265625 0.640625 1.273438 0.1875 1.421875 -0.28125 C 1.578125 -0.757812 1.890625 -1.226562 2.359375 -1.6875 C 2.828125 -2.144531 3.300781 -2.445312 3.78125 -2.59375 C 4.257812 -2.75 4.710938 -2.753906 5.140625 -2.609375 C 5.578125 -2.472656 5.976562 -2.21875 6.34375 -1.84375 C 6.71875 -1.46875 6.96875 -1.0625 7.09375 -0.625 C 7.226562 -0.195312 7.210938 0.25 7.046875 0.71875 C 6.890625 1.195312 6.578125 1.664062 6.109375 2.125 C 5.640625 2.582031 5.171875 2.882812 4.703125 3.03125 C 4.234375 3.1875 3.78125 3.195312 3.34375 3.0625 C 2.90625 2.925781 2.5 2.671875 2.125 2.296875 Z M 2.828125 1.59375 C 3.171875 1.9375 3.539062 2.085938 3.9375 2.046875 C 4.34375 2.015625 4.789062 1.757812 5.28125 1.28125 C 5.769531 0.800781 6.035156 0.363281 6.078125 -0.03125 C 6.128906 -0.4375 5.984375 -0.8125 5.640625 -1.15625 C 5.296875 -1.507812 4.921875 -1.664062 4.515625 -1.625 C 4.117188 -1.59375 3.675781 -1.335938 3.1875 -0.859375 C 2.695312 -0.378906 2.425781 0.0546875 2.375 0.453125 C 2.332031 0.859375 2.484375 1.238281 2.828125 1.59375 Z M 2.828125 1.59375 "/></g></g></g><g fill="#ffffff" fill-opacity="1"><g transform="translate(128.437833, 32.891743)"><g><path d="M 0.484375 0.578125 L 4.890625 -3.125 L 6.375 -1.375 C 6.75 -0.914062 6.925781 -0.476562 6.90625 -0.0625 C 6.894531 0.34375 6.707031 0.703125 6.34375 1.015625 C 6.070312 1.242188 5.796875 1.359375 5.515625 1.359375 C 5.234375 1.367188 4.929688 1.273438 4.609375 1.078125 L 4.546875 1.140625 C 4.597656 1.328125 4.601562 1.515625 4.5625 1.703125 C 4.519531 1.890625 4.410156 2.113281 4.234375 2.375 L 3.296875 3.921875 L 2.546875 3.03125 L 3.5 1.484375 C 3.582031 1.335938 3.640625 1.207031 3.671875 1.09375 C 3.703125 0.976562 3.695312 0.863281 3.65625 0.75 C 3.625 0.632812 3.546875 0.507812 3.421875 0.375 L 3.03125 -0.09375 L 1.203125 1.4375 Z M 4.390625 0.109375 C 4.742188 0.523438 5.117188 0.570312 5.515625 0.25 C 5.910156 -0.09375 5.929688 -0.472656 5.578125 -0.890625 L 4.90625 -1.6875 L 3.71875 -0.6875 Z M 4.390625 0.109375 "/></g></g></g><g fill="#ffffff" fill-opacity="1"><g transform="translate(131.785436, 36.788269)"><g><path d="M 1.03125 1.453125 L 0.4375 0.609375 L 5.140625 -2.703125 L 5.984375 -1.484375 L 3.359375 2.140625 L 3.40625 2.203125 L 7.71875 0.953125 L 8.546875 2.125 L 3.84375 5.4375 L 3.21875 4.578125 L 6.328125 2.390625 L 6.265625 2.28125 L 2.390625 3.390625 L 1.859375 2.625 L 4.203125 -0.65625 L 4.140625 -0.734375 Z M 1.03125 1.453125 "/></g></g></g><g fill="#ffffff" fill-opacity="1"><g transform="translate(135.895378, 42.666309)"><g><path d="M 2.78125 4.765625 L 2.171875 3.71875 L 3.09375 2.6875 L 1.984375 0.78125 L 0.625 1.078125 L 0.046875 0.078125 L 6.015625 -1.09375 L 6.75 0.15625 Z M 5.296875 0.0625 L 2.96875 0.5625 L 3.765625 1.9375 L 5.34375 0.140625 Z M 5.296875 0.0625 "/></g></g></g><g fill="#ffffff" fill-opacity="1"><g transform="translate(138.611678, 47.337151)"><g><path d="M 1.0625 2.3125 C 0.882812 1.957031 0.769531 1.617188 0.71875 1.296875 C 0.675781 0.972656 0.675781 0.679688 0.71875 0.421875 C 0.757812 0.171875 0.851562 -0.046875 1 -0.234375 L 1.9375 0 L 1.984375 0.09375 C 1.828125 0.363281 1.738281 0.648438 1.71875 0.953125 C 1.707031 1.253906 1.78125 1.5625 1.9375 1.875 C 2.070312 2.144531 2.226562 2.320312 2.40625 2.40625 C 2.59375 2.5 2.785156 2.492188 2.984375 2.390625 C 3.109375 2.328125 3.203125 2.25 3.265625 2.15625 C 3.328125 2.070312 3.359375 1.960938 3.359375 1.828125 C 3.367188 1.703125 3.351562 1.539062 3.3125 1.34375 L 3.125 0.609375 C 3.007812 0.0859375 3.015625 -0.34375 3.140625 -0.6875 C 3.273438 -1.03125 3.535156 -1.296875 3.921875 -1.484375 C 4.210938 -1.628906 4.503906 -1.679688 4.796875 -1.640625 C 5.097656 -1.609375 5.378906 -1.484375 5.640625 -1.265625 C 5.910156 -1.046875 6.140625 -0.742188 6.328125 -0.359375 C 6.523438 0.0351562 6.640625 0.398438 6.671875 0.734375 C 6.703125 1.066406 6.65625 1.382812 6.53125 1.6875 L 5.59375 1.53125 L 5.546875 1.4375 C 5.628906 1.21875 5.660156 0.992188 5.640625 0.765625 C 5.628906 0.546875 5.566406 0.316406 5.453125 0.078125 C 5.316406 -0.203125 5.160156 -0.390625 4.984375 -0.484375 C 4.816406 -0.585938 4.644531 -0.597656 4.46875 -0.515625 C 4.3125 -0.429688 4.207031 -0.3125 4.15625 -0.15625 C 4.113281 -0.0078125 4.128906 0.203125 4.203125 0.484375 L 4.390625 1.21875 C 4.535156 1.769531 4.535156 2.222656 4.390625 2.578125 C 4.242188 2.929688 3.96875 3.207031 3.5625 3.40625 C 3.238281 3.5625 2.925781 3.628906 2.625 3.609375 C 2.320312 3.585938 2.035156 3.46875 1.765625 3.25 C 1.492188 3.03125 1.257812 2.71875 1.0625 2.3125 Z M 1.0625 2.3125 "/></g></g></g><g fill="#ffffff" fill-opacity="1"><g transform="translate(140.707547, 51.646737)"><g><path d="M 0.75 1.71875 L 0.296875 0.6875 L 5.578125 -1.59375 L 6.03125 -0.5625 Z M 0.75 1.71875 "/></g></g></g></g></g><g clip-path="url(#2b8c6ece1c)"><path fill="#ffaf00" d="M 145.902344 93.3125 C 143.804688 93.3125 141.796875 94.074219 140.222656 95.5 C 139.503906 96.160156 138.90625 96.921875 138.441406 97.777344 C 138.84375 96.128906 139.175781 94.433594 139.414062 92.742188 L 139.445312 92.742188 C 141.601562 92.441406 143.535156 91.363281 144.898438 89.667969 C 146.261719 87.976562 146.921875 85.847656 146.757812 83.6875 L 146.757812 83.613281 L 146.683594 83.628906 C 144.523438 83.929688 142.589844 85.023438 141.226562 86.703125 C 140.597656 87.464844 140.132812 88.320312 139.804688 89.25 C 139.921875 87.722656 140 86.207031 140 84.707031 C 140 84.511719 140 84.320312 140 84.09375 L 140.042969 84.078125 C 142.125 83.449219 143.878906 82.070312 144.960938 80.183594 C 146.054688 78.292969 146.367188 76.089844 145.859375 73.976562 L 145.84375 73.902344 L 145.769531 73.917969 C 143.6875 74.546875 141.945312 75.925781 140.851562 77.8125 C 140.359375 78.683594 140.015625 79.597656 139.847656 80.570312 C 139.730469 78.832031 139.519531 77.125 139.234375 75.429688 L 139.265625 75.417969 C 141.226562 74.472656 142.726562 72.839844 143.503906 70.800781 C 144.285156 68.761719 144.253906 66.542969 143.429688 64.535156 L 143.402344 64.460938 L 143.324219 64.492188 C 141.363281 65.433594 139.863281 67.066406 139.085938 69.105469 C 138.738281 70.019531 138.546875 70.964844 138.53125 71.925781 C 138.140625 70.261719 137.675781 68.613281 137.136719 67.007812 L 137.152344 66.992188 C 138.933594 65.75 140.164062 63.90625 140.628906 61.777344 C 141.078125 59.648438 140.703125 57.445312 139.5625 55.601562 L 139.519531 55.542969 L 139.460938 55.585938 C 137.675781 56.832031 136.433594 58.675781 135.980469 60.804688 C 135.789062 61.746094 135.742188 62.691406 135.863281 63.652344 C 135.21875 62.105469 134.5 60.5625 133.703125 59.050781 L 133.734375 59.035156 C 135.308594 57.535156 136.238281 55.511719 136.339844 53.339844 C 136.460938 51.167969 135.742188 49.054688 134.332031 47.40625 L 134.289062 47.34375 L 134.230469 47.390625 C 132.65625 48.886719 131.726562 50.910156 131.621094 53.085938 C 131.574219 54.074219 131.695312 55.046875 131.964844 55.976562 C 131.066406 54.507812 130.105469 53.085938 129.074219 51.722656 L 129.101562 51.675781 C 130.421875 49.9375 131.019531 47.792969 130.78125 45.636719 C 130.554688 43.476562 129.523438 41.5 127.859375 40.089844 L 127.800781 40.046875 L 127.753906 40.105469 C 126.433594 41.84375 125.835938 43.988281 126.074219 46.144531 C 126.179688 47.179688 126.480469 48.152344 126.929688 49.066406 C 126.269531 48.289062 125.597656 47.539062 124.921875 46.820312 C 124.605469 44.691406 123.617188 42.789062 122.074219 41.289062 C 120.351562 39.582031 118.011719 38.621094 115.539062 38.605469 L 115.464844 38.605469 L 115.464844 38.683594 C 115.585938 41.140625 116.632812 43.433594 118.417969 45.140625 C 120.003906 46.671875 122.105469 47.613281 124.308594 47.777344 C 125.144531 48.679688 125.957031 49.609375 126.734375 50.566406 C 125.699219 49.683594 124.472656 49.066406 123.136719 48.753906 C 121.023438 48.257812 118.820312 48.605469 116.933594 49.699219 L 116.875 49.742188 L 116.917969 49.800781 C 118.132812 51.617188 119.960938 52.875 122.074219 53.371094 C 124.171875 53.847656 126.34375 53.519531 128.203125 52.457031 C 129.417969 54.089844 130.570312 55.828125 131.605469 57.625 C 130.722656 56.5625 129.582031 55.738281 128.277344 55.214844 C 126.253906 54.402344 124.035156 54.390625 122.015625 55.183594 L 121.9375 55.214844 L 121.96875 55.289062 C 122.882812 57.265625 124.488281 58.796875 126.511719 59.621094 C 128.503906 60.429688 130.722656 60.445312 132.730469 59.664062 C 133.71875 61.550781 134.589844 63.5 135.335938 65.464844 C 134.617188 64.207031 133.597656 63.15625 132.339844 62.40625 C 130.480469 61.28125 128.277344 60.921875 126.148438 61.386719 L 126.074219 61.402344 L 126.089844 61.476562 C 126.675781 63.574219 128.023438 65.34375 129.898438 66.46875 C 131.230469 67.261719 132.730469 67.683594 134.257812 67.683594 C 134.859375 67.683594 135.457031 67.621094 136.042969 67.488281 C 136.714844 69.496094 137.269531 71.550781 137.691406 73.632812 C 137.179688 72.285156 136.34375 71.085938 135.21875 70.140625 C 133.554688 68.746094 131.441406 68.042969 129.269531 68.175781 L 129.191406 68.175781 L 129.207031 68.253906 C 129.460938 70.410156 130.527344 72.375 132.191406 73.765625 C 133.734375 75.054688 135.652344 75.746094 137.644531 75.746094 C 137.796875 75.746094 137.945312 75.746094 138.09375 75.730469 C 138.425781 77.769531 138.648438 79.824219 138.753906 81.90625 C 138.453125 80.542969 137.8125 79.28125 136.882812 78.21875 C 135.457031 76.585938 133.480469 75.550781 131.304688 75.339844 L 131.230469 75.339844 L 131.230469 75.417969 C 131.140625 77.589844 131.875 79.6875 133.3125 81.335938 C 134.722656 82.953125 136.6875 83.972656 138.828125 84.199219 C 138.828125 84.257812 138.828125 84.320312 138.828125 84.378906 C 138.828125 84.5 138.828125 84.601562 138.828125 84.722656 C 138.828125 86.613281 138.726562 88.53125 138.53125 90.433594 C 138.441406 89.039062 138.003906 87.691406 137.257812 86.476562 C 136.101562 84.632812 134.304688 83.316406 132.207031 82.761719 L 132.128906 82.746094 L 132.117188 82.820312 C 131.695312 84.949219 132.085938 87.152344 133.238281 88.996094 C 134.378906 90.824219 136.160156 92.128906 138.246094 92.695312 C 137.945312 94.765625 137.496094 96.816406 136.957031 98.828125 C 137.089844 97.417969 136.882812 96.007812 136.328125 94.675781 C 135.472656 92.683594 133.914062 91.09375 131.921875 90.222656 L 131.84375 90.195312 L 131.816406 90.269531 C 131.066406 92.308594 131.109375 94.539062 131.964844 96.535156 C 132.804688 98.511719 134.363281 100.085938 136.328125 100.953125 C 135.699219 102.933594 134.964844 104.882812 134.109375 106.785156 C 134.453125 105.421875 134.46875 104.011719 134.109375 102.632812 C 133.585938 100.519531 132.28125 98.722656 130.453125 97.539062 L 130.390625 97.492188 L 130.363281 97.550781 C 129.296875 99.457031 128.996094 101.660156 129.539062 103.773438 C 130.0625 105.855469 131.335938 107.652344 133.132812 108.824219 C 132.191406 110.695312 131.171875 112.511719 130.0625 114.203125 C 130.617188 112.929688 130.828125 111.535156 130.707031 110.128906 C 130.511719 107.96875 129.523438 105.976562 127.890625 104.523438 L 127.828125 104.476562 L 127.785156 104.535156 C 126.433594 106.246094 125.789062 108.375 125.984375 110.546875 C 126.179688 112.691406 127.15625 114.667969 128.757812 116.105469 C 127.574219 117.769531 126.269531 119.390625 124.890625 120.917969 C 125.625 119.75 126.058594 118.414062 126.148438 117.019531 C 126.300781 114.847656 125.625 112.734375 124.246094 111.042969 L 124.203125 110.980469 L 124.140625 111.027344 C 122.539062 112.511719 121.578125 114.503906 121.429688 116.675781 C 121.28125 118.820312 121.9375 120.917969 123.289062 122.597656 C 121.847656 124.066406 120.304688 125.460938 118.703125 126.761719 C 119.617188 125.714844 120.261719 124.46875 120.574219 123.089844 C 121.070312 120.976562 120.726562 118.773438 119.628906 116.886719 L 119.585938 116.828125 L 119.527344 116.871094 C 117.710938 118.085938 116.453125 119.914062 115.957031 122.027344 C 115.480469 124.125 115.808594 126.296875 116.875 128.171875 C 115.238281 129.386719 113.5 130.523438 111.6875 131.574219 C 112.75 130.691406 113.574219 129.550781 114.117188 128.246094 C 114.925781 126.238281 114.941406 124.003906 114.144531 121.980469 L 114.117188 121.90625 L 114.039062 121.9375 C 112.0625 122.851562 110.535156 124.453125 109.710938 126.476562 C 108.898438 128.472656 108.886719 130.675781 109.664062 132.699219 C 107.777344 133.6875 105.855469 134.542969 103.894531 135.289062 C 105.121094 134.570312 106.171875 133.566406 106.921875 132.324219 C 108.046875 130.464844 108.40625 128.261719 107.941406 126.132812 L 107.925781 126.058594 L 107.851562 126.074219 C 105.753906 126.65625 103.984375 128.023438 102.875 129.878906 C 101.765625 131.738281 101.40625 133.910156 101.855469 136.023438 C 99.847656 136.699219 97.792969 137.253906 95.726562 137.6875 C 97.074219 137.179688 98.273438 136.339844 99.203125 135.214844 C 100.597656 133.550781 101.300781 131.4375 101.167969 129.265625 L 101.167969 129.191406 L 101.089844 129.207031 C 98.933594 129.460938 96.96875 130.523438 95.574219 132.1875 C 94.195312 133.851562 93.492188 135.933594 93.613281 138.09375 C 91.574219 138.421875 89.519531 138.648438 87.421875 138.753906 C 88.785156 138.453125 90.046875 137.808594 91.125 136.878906 C 92.757812 135.457031 93.792969 133.476562 94.003906 131.304688 L 94.015625 131.230469 L 93.941406 131.230469 C 91.769531 131.140625 89.671875 131.890625 88.023438 133.3125 C 86.402344 134.722656 85.382812 136.683594 85.160156 138.828125 C 84.859375 138.84375 84.574219 138.84375 84.277344 138.828125 C 84.050781 136.683594 83.03125 134.722656 81.414062 133.3125 C 79.777344 131.890625 77.679688 131.140625 75.492188 131.230469 L 75.417969 131.230469 L 75.433594 131.304688 C 75.644531 133.460938 76.660156 135.441406 78.308594 136.878906 C 79.390625 137.808594 80.648438 138.453125 82.011719 138.753906 C 79.929688 138.648438 77.859375 138.421875 75.824219 138.09375 C 75.925781 135.933594 75.238281 133.835938 73.859375 132.1875 C 72.464844 130.523438 70.503906 129.460938 68.34375 129.207031 L 68.269531 129.191406 L 68.269531 129.265625 C 68.148438 131.4375 68.839844 133.550781 70.230469 135.214844 C 71.175781 136.339844 72.375 137.179688 73.710938 137.6875 C 71.625 137.253906 69.585938 136.699219 67.578125 136.023438 C 68.027344 133.910156 67.667969 131.738281 66.558594 129.878906 C 65.4375 128.023438 63.667969 126.65625 61.585938 126.074219 L 61.507812 126.058594 L 61.496094 126.132812 C 61.03125 128.261719 61.390625 130.449219 62.511719 132.324219 C 63.261719 133.566406 64.3125 134.585938 65.542969 135.289062 C 63.578125 134.542969 61.660156 133.671875 59.769531 132.699219 C 60.535156 130.691406 60.519531 128.488281 59.726562 126.476562 C 58.917969 124.453125 57.371094 122.851562 55.394531 121.9375 L 55.320312 121.90625 L 55.289062 121.980469 C 54.496094 124.003906 54.511719 126.238281 55.320312 128.246094 C 55.84375 129.550781 56.667969 130.691406 57.746094 131.574219 C 55.949219 130.523438 54.210938 129.402344 52.5625 128.1875 C 53.640625 126.328125 53.957031 124.140625 53.476562 122.042969 C 52.996094 119.929688 51.722656 118.085938 49.910156 116.886719 L 49.847656 116.839844 L 49.804688 116.902344 C 48.710938 118.773438 48.367188 120.976562 48.859375 123.089844 C 49.175781 124.46875 49.820312 125.714844 50.734375 126.761719 C 49.128906 125.460938 47.585938 124.066406 46.148438 122.597656 C 47.496094 120.917969 48.15625 118.820312 48.003906 116.675781 C 47.855469 114.503906 46.898438 112.496094 45.292969 111.027344 L 45.234375 110.980469 L 45.1875 111.042969 C 43.808594 112.71875 43.136719 114.847656 43.285156 117.019531 C 43.375 118.429688 43.808594 119.75 44.542969 120.917969 C 43.164062 119.390625 41.859375 117.769531 40.675781 116.105469 C 42.28125 114.667969 43.253906 112.691406 43.449219 110.546875 C 43.644531 108.386719 43 106.246094 41.652344 104.535156 L 41.605469 104.476562 L 41.546875 104.523438 C 39.925781 105.960938 38.921875 107.953125 38.730469 110.128906 C 38.609375 111.535156 38.832031 112.929688 39.371094 114.203125 C 38.265625 112.511719 37.230469 110.695312 36.300781 108.824219 C 38.097656 107.652344 39.386719 105.855469 39.898438 103.773438 C 40.421875 101.660156 40.136719 99.457031 39.074219 97.550781 L 39.042969 97.492188 L 38.984375 97.539062 C 37.15625 98.707031 35.851562 100.519531 35.328125 102.632812 C 34.980469 104.011719 34.980469 105.4375 35.328125 106.785156 C 34.515625 104.851562 33.78125 102.902344 33.152344 100.925781 C 35.117188 100.039062 36.675781 98.480469 37.515625 96.503906 C 38.367188 94.511719 38.414062 92.277344 37.664062 90.238281 L 37.632812 90.164062 L 37.558594 90.195312 C 35.566406 91.0625 33.992188 92.652344 33.152344 94.644531 C 32.597656 95.964844 32.390625 97.386719 32.523438 98.796875 C 31.984375 96.773438 31.550781 94.734375 31.234375 92.652344 C 33.316406 92.097656 35.085938 90.777344 36.242188 88.949219 C 37.394531 87.105469 37.800781 84.917969 37.363281 82.773438 L 37.351562 82.699219 L 37.273438 82.714844 C 35.160156 83.269531 33.378906 84.589844 32.222656 86.433594 C 31.476562 87.632812 31.039062 89.007812 30.949219 90.402344 C 30.738281 88.5 30.648438 86.566406 30.648438 84.679688 C 30.648438 84.558594 30.648438 84.421875 30.648438 84.304688 L 30.648438 84.152344 C 32.792969 83.929688 34.742188 82.910156 36.164062 81.292969 C 37.589844 79.640625 38.339844 77.542969 38.25 75.371094 L 38.25 75.296875 L 38.175781 75.296875 C 36.015625 75.507812 34.039062 76.523438 32.597656 78.171875 C 31.667969 79.238281 31.023438 80.496094 30.726562 81.859375 C 30.832031 79.824219 31.054688 77.753906 31.398438 75.6875 C 33.542969 75.789062 35.640625 75.101562 37.289062 73.722656 C 38.953125 72.328125 40.015625 70.367188 40.273438 68.207031 L 40.289062 68.132812 L 40.210938 68.132812 C 38.039062 68.011719 35.925781 68.703125 34.261719 70.09375 C 33.167969 71.011719 32.34375 72.164062 31.820312 73.453125 C 32.238281 71.429688 32.792969 69.421875 33.453125 67.441406 C 35.566406 67.890625 37.738281 67.53125 39.582031 66.421875 C 41.441406 65.300781 42.804688 63.53125 43.390625 61.433594 L 43.40625 61.359375 L 43.328125 61.34375 C 41.203125 60.878906 39 61.238281 37.140625 62.363281 C 35.925781 63.097656 34.9375 64.085938 34.21875 65.285156 C 34.964844 63.335938 35.820312 61.433594 36.765625 59.632812 C 38.773438 60.398438 40.976562 60.382812 42.96875 59.574219 C 44.992188 58.765625 46.597656 57.222656 47.511719 55.242188 L 47.542969 55.167969 L 47.464844 55.136719 C 45.441406 54.34375 43.210938 54.359375 41.203125 55.167969 C 39.898438 55.691406 38.757812 56.515625 37.875 57.582031 C 38.910156 55.796875 40.046875 54.058594 41.277344 52.410156 C 43.136719 53.472656 45.308594 53.804688 47.40625 53.324219 C 49.519531 52.84375 51.363281 51.570312 52.5625 49.757812 L 52.605469 49.699219 L 52.546875 49.652344 C 50.671875 48.558594 48.46875 48.214844 46.34375 48.707031 C 45.007812 49.007812 43.792969 49.636719 42.761719 50.507812 C 43.523438 49.5625 44.332031 48.632812 45.1875 47.734375 C 47.390625 47.554688 49.472656 46.625 51.078125 45.097656 C 52.863281 43.386719 53.910156 41.09375 54.03125 38.636719 L 54.03125 38.5625 L 53.957031 38.5625 C 51.484375 38.578125 49.160156 39.535156 47.375 41.246094 C 45.816406 42.742188 44.828125 44.648438 44.515625 46.773438 C 43.824219 47.507812 43.148438 48.257812 42.503906 49.023438 C 42.96875 48.109375 43.253906 47.121094 43.375 46.085938 C 43.597656 43.925781 43 41.785156 41.679688 40.046875 L 41.636719 39.984375 L 41.574219 40.03125 C 39.925781 41.441406 38.894531 43.417969 38.652344 45.574219 C 38.429688 47.734375 39.027344 49.878906 40.347656 51.617188 L 40.390625 51.675781 C 39.359375 53.070312 38.382812 54.492188 37.5 55.960938 C 37.785156 55.019531 37.902344 54.042969 37.859375 53.039062 C 37.753906 50.867188 36.824219 48.84375 35.25 47.34375 L 35.191406 47.300781 L 35.148438 47.359375 C 33.738281 49.023438 33.019531 51.121094 33.136719 53.292969 C 33.242188 55.46875 34.171875 57.492188 35.746094 58.988281 L 35.777344 59.019531 C 34.980469 60.535156 34.261719 62.09375 33.601562 63.664062 C 33.738281 62.707031 33.691406 61.734375 33.496094 60.773438 C 33.046875 58.644531 31.820312 56.785156 30.019531 55.558594 L 29.960938 55.511719 L 29.914062 55.574219 C 28.792969 57.429688 28.402344 59.621094 28.851562 61.746094 C 29.300781 63.875 30.53125 65.734375 32.328125 66.964844 L 32.359375 66.976562 C 31.804688 68.613281 31.339844 70.261719 30.949219 71.910156 C 30.933594 70.933594 30.738281 69.992188 30.394531 69.078125 C 29.617188 67.054688 28.117188 65.40625 26.152344 64.460938 L 26.078125 64.429688 L 26.050781 64.503906 C 25.226562 66.511719 25.195312 68.746094 25.972656 70.769531 C 26.753906 72.808594 28.265625 74.441406 30.214844 75.386719 L 30.246094 75.402344 C 29.960938 77.078125 29.75 78.804688 29.632812 80.527344 C 29.464844 79.566406 29.121094 78.636719 28.628906 77.769531 C 27.546875 75.878906 25.792969 74.5 23.710938 73.871094 L 23.636719 73.855469 L 23.652344 73.976562 C 23.140625 76.089844 23.472656 78.292969 24.550781 80.183594 C 25.628906 82.070312 27.382812 83.449219 29.464844 84.078125 L 29.511719 84.09375 C 29.511719 84.320312 29.511719 84.511719 29.511719 84.707031 C 29.511719 86.207031 29.570312 87.722656 29.691406 89.25 C 29.375 88.320312 28.898438 87.480469 28.265625 86.703125 C 26.902344 85.007812 24.96875 83.914062 22.8125 83.628906 L 22.738281 83.613281 L 22.738281 83.6875 C 22.570312 85.863281 23.230469 87.992188 24.59375 89.667969 C 25.960938 91.363281 27.90625 92.457031 30.066406 92.742188 L 30.097656 92.742188 C 30.351562 94.433594 30.664062 96.128906 31.070312 97.777344 C 30.605469 96.921875 30.003906 96.160156 29.285156 95.5 C 27.667969 94.046875 25.585938 93.265625 23.410156 93.3125 L 23.335938 93.3125 L 23.335938 93.386719 C 23.515625 95.558594 24.503906 97.550781 26.125 99.007812 C 27.699219 100.414062 29.707031 101.195312 31.820312 101.195312 C 31.878906 101.195312 31.9375 101.195312 32 101.195312 L 32.027344 101.195312 C 32.539062 102.828125 33.136719 104.445312 33.796875 106.035156 C 33.214844 105.257812 32.492188 104.582031 31.667969 104.058594 C 29.839844 102.875 27.667969 102.421875 25.523438 102.8125 L 25.449219 102.828125 L 25.464844 102.902344 C 25.972656 105.015625 27.261719 106.828125 29.089844 108.015625 C 30.921875 109.199219 33.09375 109.632812 35.238281 109.257812 L 35.265625 109.257812 C 36.03125 110.800781 36.886719 112.316406 37.785156 113.785156 C 37.066406 113.09375 36.253906 112.539062 35.355469 112.136719 C 33.378906 111.25 31.144531 111.160156 29.089844 111.878906 L 29.015625 111.910156 L 29.046875 111.984375 C 29.886719 113.992188 31.445312 115.582031 33.421875 116.464844 C 35.402344 117.351562 37.632812 117.441406 39.6875 116.722656 L 39.734375 116.707031 C 40.738281 118.117188 41.816406 119.496094 42.953125 120.8125 C 42.128906 120.230469 41.230469 119.808594 40.257812 119.539062 C 38.160156 118.96875 35.957031 119.222656 34.023438 120.257812 L 33.960938 120.289062 L 34.007812 120.347656 C 35.148438 122.207031 36.929688 123.539062 39.027344 124.09375 C 41.125 124.664062 43.34375 124.410156 45.261719 123.375 L 45.308594 123.347656 C 46.507812 124.574219 47.78125 125.757812 49.085938 126.867188 C 48.199219 126.433594 47.257812 126.164062 46.265625 126.058594 C 44.109375 125.832031 41.964844 126.433594 40.226562 127.753906 L 40.167969 127.796875 L 40.210938 127.855469 C 41.636719 129.503906 43.597656 130.539062 45.757812 130.78125 C 47.914062 131.003906 50.058594 130.40625 51.796875 129.085938 L 51.828125 129.054688 C 53.207031 130.074219 54.628906 131.035156 56.085938 131.933594 C 55.15625 131.648438 54.179688 131.527344 53.191406 131.589844 C 51.019531 131.695312 48.996094 132.625 47.496094 134.195312 L 47.453125 134.257812 L 47.511719 134.300781 C 49.175781 135.710938 51.273438 136.429688 53.445312 136.308594 C 55.621094 136.191406 57.644531 135.261719 59.140625 133.703125 L 59.15625 133.6875 C 60.65625 134.480469 62.214844 135.199219 63.773438 135.84375 C 62.828125 135.726562 61.871094 135.753906 60.925781 135.964844 C 58.796875 136.414062 56.9375 137.644531 55.710938 139.441406 L 55.664062 139.503906 L 55.722656 139.546875 C 57.582031 140.6875 59.785156 141.0625 61.898438 140.613281 C 64.027344 140.160156 65.871094 138.933594 67.113281 137.132812 L 67.128906 137.121094 C 68.734375 137.660156 70.382812 138.125 72.03125 138.511719 C 71.070312 138.542969 70.140625 138.722656 69.226562 139.066406 C 67.203125 139.847656 65.554688 141.347656 64.613281 143.308594 L 64.582031 143.382812 L 64.65625 143.414062 C 66.664062 144.238281 68.898438 144.269531 70.921875 143.488281 C 72.945312 142.710938 74.59375 141.210938 75.539062 139.246094 L 75.550781 139.234375 C 77.214844 139.515625 78.925781 139.710938 80.648438 139.847656 C 79.6875 140.027344 78.789062 140.355469 77.9375 140.835938 C 76.046875 141.914062 74.667969 143.667969 74.039062 145.753906 L 74.023438 145.828125 L 74.097656 145.84375 C 76.210938 146.335938 78.414062 146.023438 80.304688 144.941406 C 82.191406 143.847656 83.570312 142.109375 84.199219 140.027344 L 84.214844 139.996094 C 84.574219 139.996094 84.933594 139.996094 85.28125 139.996094 L 85.292969 140.027344 C 85.925781 142.109375 87.304688 143.847656 89.191406 144.941406 C 90.496094 145.691406 91.949219 146.082031 93.417969 146.082031 C 94.078125 146.082031 94.738281 146.007812 95.394531 145.855469 L 95.472656 145.84375 L 95.457031 145.765625 C 94.828125 143.683594 93.449219 141.945312 91.558594 140.851562 C 90.703125 140.355469 89.804688 140.027344 88.847656 139.863281 C 90.554688 139.742188 92.265625 139.53125 93.941406 139.246094 L 93.957031 139.261719 C 94.902344 141.226562 96.535156 142.726562 98.574219 143.503906 C 100.597656 144.285156 102.828125 144.253906 104.839844 143.429688 L 104.914062 143.398438 L 104.882812 143.324219 C 103.9375 141.359375 102.289062 139.863281 100.265625 139.082031 C 99.367188 138.738281 98.421875 138.542969 97.464844 138.527344 C 99.113281 138.136719 100.761719 137.675781 102.367188 137.132812 L 102.378906 137.148438 C 103.625 138.933594 105.484375 140.175781 107.597656 140.625 C 109.722656 141.074219 111.914062 140.703125 113.769531 139.5625 L 113.832031 139.515625 L 113.785156 139.457031 C 112.542969 137.675781 110.683594 136.429688 108.570312 135.980469 C 107.625 135.785156 106.667969 135.742188 105.722656 135.859375 C 107.28125 135.214844 108.824219 134.496094 110.339844 133.703125 L 110.355469 133.71875 C 111.851562 135.289062 113.875 136.21875 116.046875 136.324219 C 118.222656 136.429688 120.320312 135.726562 121.984375 134.316406 L 122.042969 134.273438 L 122 134.210938 C 120.484375 132.636719 118.460938 131.707031 116.304688 131.605469 C 115.3125 131.558594 114.339844 131.679688 113.410156 131.949219 C 114.878906 131.066406 116.304688 130.089844 117.667969 129.070312 L 117.699219 129.101562 C 119.421875 130.421875 121.578125 131.019531 123.738281 130.792969 C 125.894531 130.570312 127.875 129.535156 129.28125 127.871094 L 129.328125 127.8125 L 129.269531 127.765625 C 127.527344 126.449219 125.402344 125.847656 123.226562 126.074219 C 122.238281 126.179688 121.292969 126.449219 120.410156 126.882812 C 121.714844 125.773438 122.988281 124.589844 124.1875 123.359375 L 124.230469 123.375 C 126.148438 124.410156 128.367188 124.664062 130.464844 124.09375 C 132.566406 123.539062 134.347656 122.207031 135.488281 120.347656 L 135.53125 120.289062 L 135.472656 120.257812 C 133.554688 119.222656 131.335938 118.96875 129.238281 119.539062 C 128.261719 119.792969 127.363281 120.230469 126.539062 120.8125 C 127.679688 119.496094 128.757812 118.128906 129.761719 116.707031 L 129.808594 116.722656 C 131.859375 117.441406 134.09375 117.351562 136.070312 116.464844 C 138.050781 115.582031 139.609375 113.992188 140.449219 111.984375 L 140.476562 111.910156 L 140.402344 111.878906 C 138.351562 111.160156 136.117188 111.25 134.136719 112.136719 C 133.238281 112.539062 132.414062 113.09375 131.710938 113.785156 C 132.625 112.316406 133.464844 110.800781 134.230469 109.257812 L 134.257812 109.257812 C 136.402344 109.648438 138.589844 109.199219 140.402344 108.015625 C 142.230469 106.828125 143.503906 105.015625 144.03125 102.902344 L 144.046875 102.828125 L 143.96875 102.8125 C 141.828125 102.421875 139.640625 102.859375 137.824219 104.058594 C 137 104.597656 136.296875 105.257812 135.699219 106.035156 C 136.355469 104.445312 136.957031 102.828125 137.464844 101.195312 L 137.496094 101.195312 C 139.667969 101.238281 141.753906 100.460938 143.371094 99.007812 C 144.988281 97.550781 145.964844 95.558594 146.144531 93.386719 L 146.144531 93.3125 L 146.070312 93.3125 C 146.039062 93.3125 145.964844 93.3125 145.902344 93.3125 Z M 110.308594 132.429688 Z M 110.308594 132.429688 " fill-opacity="1" fill-rule="nonzero"/></g><g clip-path="url(#4e6c211075)"><g clip-path="url(#4662671b75)"><g clip-path="url(#032918dfa5)"><path fill="#ffaf00" d="M 158.492188 79.890625 L 154.363281 76.933594 L 154.53125 82.007812 L 150.441406 85.023438 L 155.320312 86.433594 C 156.066406 88.058594 156.296875 92.777344 156.296875 92.777344 C 156.300781 92.730469 156.789062 87.613281 156.332031 85.382812 L 153.3125 84.507812 L 155.84375 82.644531 L 155.738281 79.507812 L 158.292969 81.335938 L 161.246094 80.269531 L 160.296875 83.261719 L 162.222656 85.742188 L 159.082031 85.761719 C 157.570312 93.734375 154.746094 100.679688 154.746094 100.679688 C 154.746094 100.679688 157.289062 96.15625 159.769531 87.050781 L 164.847656 87.011719 L 161.730469 83.007812 L 163.265625 78.167969 Z M 158.492188 79.890625 " fill-opacity="1" fill-rule="nonzero"/></g></g></g><g transform="matrix(1, 0, 0, 1, 13, 113)"><g clip-path="url(#02c35a0b7d)"><g fill="#ffffff" fill-opacity="1"><g transform="translate(2.364979, 5.28854)"><g><path d="M 7.15625 1.125 L 6.3125 1.578125 L 5.109375 -0.625 L 3.765625 0.109375 L 4.859375 2.109375 L 4.03125 2.546875 L 2.9375 0.546875 L 0.890625 1.65625 L 0.359375 0.65625 L 5.421875 -2.078125 Z M 7.15625 1.125 "/></g></g></g><g fill="#ffffff" fill-opacity="1"><g transform="translate(4.65885, 9.547232)"><g><path d="M 2.953125 4.65625 L 2.3125 3.640625 L 3.203125 2.578125 L 2.03125 0.71875 L 0.671875 1.0625 L 0.046875 0.078125 L 5.96875 -1.328125 L 6.75 -0.09375 Z M 5.3125 -0.125 L 2.984375 0.453125 L 3.828125 1.8125 L 5.359375 -0.046875 Z M 5.3125 -0.125 "/></g></g></g><g fill="#ffffff" fill-opacity="1"><g transform="translate(7.773872, 14.444383)"><g><path d="M 0.453125 0.609375 L 5.078125 -2.8125 L 5.734375 -1.921875 L 3.84375 -0.53125 L 3.921875 -0.421875 L 6.953125 -0.265625 L 7.65625 0.671875 L 7.5625 0.734375 L 4.203125 0.59375 L 3.234375 4.203125 L 3.15625 4.265625 L 2.390625 3.234375 L 3.1875 0.125 L 3.109375 0.015625 L 1.109375 1.5 Z M 0.453125 0.609375 "/></g></g></g><g fill="#ffffff" fill-opacity="1"><g transform="translate(11.051992, 18.89052)"><g><path d="M 1.921875 2.359375 C 1.410156 1.753906 1.171875 1.1875 1.203125 0.65625 C 1.242188 0.125 1.539062 -0.378906 2.09375 -0.859375 L 4.8125 -3.21875 L 5.53125 -2.375 L 2.8125 -0.015625 C 2.5 0.253906 2.328125 0.53125 2.296875 0.8125 C 2.273438 1.09375 2.398438 1.394531 2.671875 1.71875 C 3.203125 2.332031 3.78125 2.367188 4.40625 1.828125 L 7.125 -0.53125 L 7.859375 0.296875 L 5.140625 2.65625 C 4.585938 3.132812 4.039062 3.351562 3.5 3.3125 C 2.96875 3.269531 2.441406 2.953125 1.921875 2.359375 Z M 1.921875 2.359375 "/></g></g></g><g fill="#ffffff" fill-opacity="1"><g transform="translate(15.189739, 23.63051)"><g><path d="M 5.40625 -2.734375 L 2 0.65625 L 3.828125 2.5 L 3.15625 3.171875 L 0.53125 0.53125 L 4.609375 -3.53125 Z M 5.40625 -2.734375 "/></g></g></g><g fill="#ffffff" fill-opacity="1"><g transform="translate(18.602622, 27.046377)"><g><path d="M 7.265625 -1.265625 L 6.625 -0.546875 L 5.390625 -1.640625 L 2.21875 1.953125 L 1.359375 1.203125 L 4.53125 -2.390625 L 3.28125 -3.484375 L 3.921875 -4.203125 Z M 7.265625 -1.265625 "/></g></g></g><g fill="#ffffff" fill-opacity="1"><g transform="translate(22.310581, 30.337083)"><g><path d="M 4.375 3.359375 L 3.421875 2.625 L 3.890625 1.328125 L 2.15625 -0.015625 L 0.984375 0.765625 L 0.078125 0.0625 L 5.140625 -3.296875 L 6.296875 -2.40625 Z M 4.9375 -1.9375 L 2.96875 -0.609375 L 4.234375 0.375 L 5.015625 -1.890625 Z M 4.9375 -1.9375 "/></g></g></g><g fill="#ffffff" fill-opacity="1"><g transform="translate(26.917216, 33.856159)"><g><path d="M 2.078125 1.46875 C 1.742188 1.25 1.472656 1.007812 1.265625 0.75 C 1.066406 0.5 0.921875 0.25 0.828125 0 C 0.742188 -0.238281 0.71875 -0.472656 0.75 -0.703125 L 1.671875 -0.984375 L 1.75 -0.921875 C 1.757812 -0.617188 1.832031 -0.328125 1.96875 -0.046875 C 2.113281 0.222656 2.332031 0.457031 2.625 0.65625 C 2.875 0.820312 3.097656 0.894531 3.296875 0.875 C 3.492188 0.863281 3.65625 0.757812 3.78125 0.5625 C 3.863281 0.445312 3.910156 0.332031 3.921875 0.21875 C 3.929688 0.113281 3.898438 0.00390625 3.828125 -0.109375 C 3.765625 -0.222656 3.671875 -0.359375 3.546875 -0.515625 L 3 -1.03125 C 2.644531 -1.425781 2.4375 -1.804688 2.375 -2.171875 C 2.320312 -2.535156 2.414062 -2.898438 2.65625 -3.265625 C 2.832031 -3.535156 3.054688 -3.726562 3.328125 -3.84375 C 3.609375 -3.96875 3.914062 -4 4.25 -3.9375 C 4.582031 -3.875 4.925781 -3.726562 5.28125 -3.5 C 5.65625 -3.25 5.941406 -2.988281 6.140625 -2.71875 C 6.335938 -2.457031 6.457031 -2.160156 6.5 -1.828125 L 5.609375 -1.5 L 5.53125 -1.546875 C 5.476562 -1.773438 5.390625 -1.984375 5.265625 -2.171875 C 5.140625 -2.359375 4.96875 -2.53125 4.75 -2.6875 C 4.488281 -2.851562 4.257812 -2.9375 4.0625 -2.9375 C 3.863281 -2.9375 3.710938 -2.851562 3.609375 -2.6875 C 3.503906 -2.539062 3.46875 -2.390625 3.5 -2.234375 C 3.539062 -2.078125 3.660156 -1.894531 3.859375 -1.6875 L 4.40625 -1.15625 C 4.8125 -0.75 5.039062 -0.359375 5.09375 0.015625 C 5.144531 0.390625 5.046875 0.769531 4.796875 1.15625 C 4.597656 1.445312 4.359375 1.660156 4.078125 1.796875 C 3.804688 1.929688 3.5 1.972656 3.15625 1.921875 C 2.8125 1.867188 2.453125 1.71875 2.078125 1.46875 Z M 2.078125 1.46875 "/></g></g></g><g fill="#ffffff" fill-opacity="1"><g transform="translate(31.157406, 36.620916)"><g/></g></g><g fill="#ffffff" fill-opacity="1"><g transform="translate(32.878001, 37.685311)"><g><path d="M 6.796875 -2.875 L 6.34375 -2.03125 L 4.875 -2.8125 L 2.59375 1.40625 L 1.59375 0.859375 L 3.875 -3.359375 L 2.421875 -4.140625 L 2.875 -4.984375 Z M 6.796875 -2.875 "/></g></g></g><g fill="#ffffff" fill-opacity="1"><g transform="translate(37.22901, 40.034182)"><g><path d="M 2.75 -1.5 L 2.09375 -0.078125 L 4.59375 1.078125 L 4.203125 1.9375 L 0.6875 0.3125 L 3.09375 -4.90625 L 6.546875 -3.3125 L 6.140625 -2.453125 L 3.703125 -3.578125 L 3.140625 -2.359375 L 5.265625 -1.375 L 4.875 -0.515625 Z M 2.75 -1.5 "/></g></g></g><g fill="#ffffff" fill-opacity="1"><g transform="translate(41.891723, 42.178089)"><g><path d="M 0.703125 0.265625 L 2.75 -5.109375 L 3.796875 -4.703125 L 2.953125 -2.515625 L 3.078125 -2.484375 L 5.71875 -3.984375 L 6.8125 -3.5625 L 6.765625 -3.453125 L 3.859375 -1.78125 L 5 1.796875 L 4.96875 1.890625 L 3.765625 1.4375 L 2.75 -1.625 L 2.625 -1.65625 L 1.75 0.671875 Z M 0.703125 0.265625 "/></g></g></g><g fill="#ffffff" fill-opacity="1"><g transform="translate(47.055783, 44.151281)"><g><path d="M 1.765625 0.515625 L 0.71875 0.21875 L 2.34375 -5.296875 L 3.59375 -4.9375 L 4.765625 -0.734375 L 4.84375 -0.734375 L 5.890625 -4.265625 L 6.953125 -3.953125 L 5.328125 1.5625 L 4.21875 1.234375 L 2.96875 -3.25 L 2.875 -3.265625 Z M 1.765625 0.515625 "/></g></g></g><g fill="#ffffff" fill-opacity="1"><g transform="translate(53.274121, 45.916565)"><g><path d="M 1.828125 0.421875 L 0.734375 0.171875 L 2.03125 -5.4375 L 3.125 -5.1875 Z M 1.828125 0.421875 "/></g></g></g><g fill="#ffffff" fill-opacity="1"><g transform="translate(55.978921, 46.571453)"><g><path d="M 0.734375 0.125 L 1.734375 -5.53125 L 2.84375 -5.328125 L 2.4375 -3.03125 L 2.5625 -3.015625 L 4.859375 -4.984375 L 6.015625 -4.78125 L 5.984375 -4.6875 L 3.453125 -2.46875 L 5.25 0.828125 L 5.234375 0.921875 L 3.96875 0.703125 L 2.390625 -2.109375 L 2.265625 -2.125 L 1.84375 0.328125 Z M 0.734375 0.125 "/></g></g></g><g fill="#ffffff" fill-opacity="1"><g transform="translate(61.346433, 47.468304)"><g/></g></g><g fill="#ffffff" fill-opacity="1"><g transform="translate(63.373149, 47.776333)"><g><path d="M 3.03125 0.296875 C 2.25 0.242188 1.679688 0.015625 1.328125 -0.390625 C 0.972656 -0.796875 0.820312 -1.367188 0.875 -2.109375 L 1.140625 -5.6875 L 2.25 -5.609375 L 1.984375 -2.03125 C 1.953125 -1.613281 2.023438 -1.289062 2.203125 -1.0625 C 2.390625 -0.84375 2.6875 -0.71875 3.09375 -0.6875 C 3.90625 -0.625 4.34375 -1.007812 4.40625 -1.84375 L 4.671875 -5.421875 L 5.78125 -5.34375 L 5.515625 -1.765625 C 5.460938 -1.023438 5.234375 -0.476562 4.828125 -0.125 C 4.421875 0.21875 3.820312 0.359375 3.03125 0.296875 Z M 3.03125 0.296875 "/></g></g></g><g fill="#ffffff" fill-opacity="1"><g transform="translate(69.681394, 48.229587)"><g><path d="M 1.84375 -0.015625 L 0.75 0 L 0.6875 -5.75 L 1.984375 -5.765625 L 4.34375 -2.09375 L 4.4375 -2.109375 L 4.390625 -5.796875 L 5.484375 -5.796875 L 5.546875 -0.046875 L 4.390625 -0.046875 L 1.90625 -3.96875 L 1.8125 -3.953125 Z M 1.84375 -0.015625 "/></g></g></g><g fill="#ffffff" fill-opacity="1"><g transform="translate(76.144513, 48.10651)"><g><path d="M 1.875 -0.125 L 0.75 -0.046875 L 0.359375 -5.78125 L 1.484375 -5.859375 Z M 1.875 -0.125 "/></g></g></g><g fill="#ffffff" fill-opacity="1"><g transform="translate(78.925404, 47.947755)"><g><path d="M 3.390625 -0.421875 L 2.03125 -0.25 L -0.59375 -5.71875 L 0.59375 -5.859375 L 2.5 -1.78125 L 2.59375 -1.796875 L 3.4375 -6.21875 L 4.59375 -6.359375 Z M 3.390625 -0.421875 "/></g></g></g><g fill="#ffffff" fill-opacity="1"><g transform="translate(84.529588, 47.239601)"><g><path d="M 1.359375 -2.828125 L 1.65625 -1.296875 L 4.359375 -1.828125 L 4.546875 -0.890625 L 0.734375 -0.140625 L -0.359375 -5.78125 L 3.390625 -6.515625 L 3.5625 -5.578125 L 0.921875 -5.0625 L 1.1875 -3.75 L 3.484375 -4.203125 L 3.65625 -3.28125 Z M 1.359375 -2.828125 "/></g></g></g><g fill="#ffffff" fill-opacity="1"><g transform="translate(89.568425, 46.260596)"><g><path d="M 0.71875 -0.1875 L -0.765625 -5.75 L 1.453125 -6.34375 C 2.023438 -6.5 2.492188 -6.476562 2.859375 -6.28125 C 3.234375 -6.09375 3.484375 -5.769531 3.609375 -5.3125 C 3.691406 -4.96875 3.675781 -4.664062 3.5625 -4.40625 C 3.457031 -4.144531 3.25 -3.914062 2.9375 -3.71875 L 2.96875 -3.640625 C 3.15625 -3.597656 3.320312 -3.519531 3.46875 -3.40625 C 3.613281 -3.289062 3.773438 -3.097656 3.953125 -2.828125 L 4.953125 -1.328125 L 3.8125 -1.015625 L 2.84375 -2.53125 C 2.75 -2.6875 2.648438 -2.800781 2.546875 -2.875 C 2.453125 -2.945312 2.347656 -2.988281 2.234375 -3 C 2.117188 -3.019531 1.972656 -3.003906 1.796875 -2.953125 L 1.203125 -2.796875 L 1.8125 -0.484375 Z M 1.984375 -3.9375 C 2.503906 -4.082031 2.695312 -4.398438 2.5625 -4.890625 C 2.425781 -5.398438 2.097656 -5.582031 1.578125 -5.4375 L 0.5625 -5.171875 L 0.96875 -3.671875 Z M 1.984375 -3.9375 "/></g></g></g><g fill="#ffffff" fill-opacity="1"><g transform="translate(94.941794, 44.812347)"><g><path d="M 2.4375 -0.75 C 2.0625 -0.613281 1.707031 -0.539062 1.375 -0.53125 C 1.050781 -0.53125 0.765625 -0.570312 0.515625 -0.65625 C 0.273438 -0.738281 0.0703125 -0.859375 -0.09375 -1.015625 L 0.25 -1.921875 L 0.34375 -1.953125 C 0.59375 -1.765625 0.863281 -1.644531 1.15625 -1.59375 C 1.457031 -1.539062 1.773438 -1.570312 2.109375 -1.6875 C 2.398438 -1.78125 2.597656 -1.910156 2.703125 -2.078125 C 2.804688 -2.253906 2.820312 -2.445312 2.75 -2.65625 C 2.707031 -2.789062 2.644531 -2.894531 2.5625 -2.96875 C 2.488281 -3.039062 2.382812 -3.082031 2.25 -3.09375 C 2.125 -3.113281 1.960938 -3.117188 1.765625 -3.109375 L 1.015625 -3.015625 C 0.484375 -2.972656 0.0546875 -3.035156 -0.265625 -3.203125 C -0.585938 -3.378906 -0.820312 -3.675781 -0.96875 -4.09375 C -1.070312 -4.394531 -1.085938 -4.6875 -1.015625 -4.96875 C -0.941406 -5.257812 -0.78125 -5.519531 -0.53125 -5.75 C -0.28125 -5.988281 0.046875 -6.175781 0.453125 -6.3125 C 0.867188 -6.457031 1.242188 -6.523438 1.578125 -6.515625 C 1.921875 -6.503906 2.234375 -6.414062 2.515625 -6.25 L 2.234375 -5.359375 L 2.140625 -5.328125 C 1.929688 -5.421875 1.710938 -5.472656 1.484375 -5.484375 C 1.253906 -5.503906 1.015625 -5.472656 0.765625 -5.390625 C 0.460938 -5.285156 0.253906 -5.15625 0.140625 -5 C 0.0234375 -4.84375 0 -4.671875 0.0625 -4.484375 C 0.125 -4.316406 0.226562 -4.195312 0.375 -4.125 C 0.519531 -4.0625 0.734375 -4.050781 1.015625 -4.09375 L 1.78125 -4.1875 C 2.34375 -4.257812 2.785156 -4.203125 3.109375 -4.015625 C 3.441406 -3.835938 3.679688 -3.53125 3.828125 -3.09375 C 3.941406 -2.757812 3.96875 -2.441406 3.90625 -2.140625 C 3.851562 -1.835938 3.703125 -1.566406 3.453125 -1.328125 C 3.203125 -1.085938 2.863281 -0.894531 2.4375 -0.75 Z M 2.4375 -0.75 "/></g></g></g><g fill="#ffffff" fill-opacity="1"><g transform="translate(99.734409, 43.140907)"><g><path d="M 1.734375 -0.6875 L 0.703125 -0.28125 L -1.421875 -5.625 L -0.390625 -6.03125 Z M 1.734375 -0.6875 "/></g></g></g><g fill="#ffffff" fill-opacity="1"><g transform="translate(102.317487, 42.135832)"><g><path d="M 1.796875 -7.15625 L 2.1875 -6.28125 L 0.6875 -5.59375 L 2.6875 -1.234375 L 1.65625 -0.75 L -0.34375 -5.109375 L -1.859375 -4.421875 L -2.25 -5.296875 Z M 1.796875 -7.15625 "/></g></g></g><g fill="#ffffff" fill-opacity="1"><g transform="translate(106.829997, 40.082047)"><g><path d="M 4.84375 -2.625 L 3.796875 -2.0625 L 2.78125 -3.03125 L 0.84375 -1.984375 L 1.09375 -0.59375 L 0.078125 -0.046875 L -0.921875 -6.03125 L 0.359375 -6.734375 Z M 0.234375 -5.3125 L 0.65625 -2.953125 L 2.046875 -3.703125 L 0.3125 -5.34375 Z M 0.234375 -5.3125 "/></g></g></g><g fill="#ffffff" fill-opacity="1"><g transform="translate(111.914666, 37.298278)"><g><path d="M 2.1875 -1.3125 C 1.851562 -1.09375 1.523438 -0.941406 1.203125 -0.859375 C 0.890625 -0.773438 0.601562 -0.738281 0.34375 -0.75 C 0.0820312 -0.769531 -0.140625 -0.835938 -0.328125 -0.953125 L -0.21875 -1.9375 L -0.140625 -1.984375 C 0.148438 -1.859375 0.445312 -1.800781 0.75 -1.8125 C 1.0625 -1.832031 1.363281 -1.941406 1.65625 -2.140625 C 1.914062 -2.296875 2.078125 -2.46875 2.140625 -2.65625 C 2.203125 -2.84375 2.171875 -3.035156 2.046875 -3.234375 C 1.972656 -3.347656 1.890625 -3.429688 1.796875 -3.484375 C 1.703125 -3.535156 1.585938 -3.554688 1.453125 -3.546875 C 1.328125 -3.535156 1.164062 -3.5 0.96875 -3.4375 L 0.28125 -3.1875 C -0.238281 -3.007812 -0.671875 -2.96875 -1.015625 -3.0625 C -1.367188 -3.15625 -1.664062 -3.382812 -1.90625 -3.75 C -2.082031 -4.019531 -2.171875 -4.304688 -2.171875 -4.609375 C -2.171875 -4.910156 -2.070312 -5.203125 -1.875 -5.484375 C -1.6875 -5.765625 -1.414062 -6.019531 -1.0625 -6.25 C -0.6875 -6.488281 -0.332031 -6.640625 0 -6.703125 C 0.320312 -6.773438 0.644531 -6.769531 0.96875 -6.6875 L 0.90625 -5.71875 L 0.828125 -5.671875 C 0.597656 -5.722656 0.367188 -5.726562 0.140625 -5.6875 C -0.078125 -5.65625 -0.300781 -5.566406 -0.53125 -5.421875 C -0.789062 -5.253906 -0.957031 -5.082031 -1.03125 -4.90625 C -1.113281 -4.726562 -1.101562 -4.554688 -1 -4.390625 C -0.90625 -4.234375 -0.78125 -4.140625 -0.625 -4.109375 C -0.46875 -4.078125 -0.253906 -4.109375 0.015625 -4.203125 L 0.734375 -4.484375 C 1.265625 -4.691406 1.710938 -4.742188 2.078125 -4.640625 C 2.441406 -4.535156 2.75 -4.289062 3 -3.90625 C 3.1875 -3.601562 3.285156 -3.296875 3.296875 -2.984375 C 3.304688 -2.679688 3.21875 -2.382812 3.03125 -2.09375 C 2.851562 -1.8125 2.570312 -1.550781 2.1875 -1.3125 Z M 2.1875 -1.3125 "/></g></g></g><g fill="#ffffff" fill-opacity="1"><g transform="translate(116.162674, 34.545711)"><g/></g></g><g fill="#ffffff" fill-opacity="1"><g transform="translate(117.907035, 33.417666)"><g><path d="M 1.390625 -1.109375 L 0.578125 -0.46875 L -3.015625 -4.953125 L -1.84375 -5.875 L 1.921875 -3.484375 L 1.984375 -3.546875 L 0.484375 -7.75 L 1.609375 -8.640625 L 5.203125 -4.15625 L 4.375 -3.5 L 2 -6.46875 L 1.90625 -6.390625 L 3.25 -2.59375 L 2.515625 -2.015625 L -0.90625 -4.15625 L -0.984375 -4.078125 Z M 1.390625 -1.109375 "/></g></g></g><g fill="#ffffff" fill-opacity="1"><g transform="translate(123.855028, 28.5929)"><g><path d="M 4 -3.8125 L 3.125 -2.96875 L 1.890625 -3.65625 L 0.296875 -2.140625 L 0.90625 -0.859375 L 0.0625 -0.0625 L -2.46875 -5.59375 L -1.40625 -6.59375 Z M -1.15625 -5.1875 L -0.140625 -3.03125 L 1.015625 -4.125 L -1.09375 -5.25 Z M -1.15625 -5.1875 "/></g></g></g><g fill="#ffffff" fill-opacity="1"><g transform="translate(128.073815, 24.577341)"><g><path d="M 1.234375 -1.375 L 0.5 -0.5625 L -3.78125 -4.390625 L -2.921875 -5.359375 L 1.375 -4.609375 L 1.4375 -4.6875 L -1.3125 -7.140625 L -0.578125 -7.953125 L 3.703125 -4.125 L 2.921875 -3.265625 L -1.640625 -4.078125 L -1.703125 -4 Z M 1.234375 -1.375 "/></g></g></g><g fill="#ffffff" fill-opacity="1"><g transform="translate(132.421971, 19.70097)"><g><path d="M -2.890625 -5.71875 C -2.328125 -6.457031 -1.703125 -6.875 -1.015625 -6.96875 C -0.328125 -7.070312 0.390625 -6.835938 1.140625 -6.265625 C 1.898438 -5.691406 2.320312 -5.0625 2.40625 -4.375 C 2.5 -3.695312 2.265625 -2.988281 1.703125 -2.25 L 0.453125 -0.59375 L -4.140625 -4.0625 Z M 0.890625 -2.765625 C 1.253906 -3.242188 1.398438 -3.691406 1.328125 -4.109375 C 1.265625 -4.523438 0.960938 -4.9375 0.421875 -5.34375 C -0.109375 -5.75 -0.582031 -5.925781 -1 -5.875 C -1.414062 -5.820312 -1.804688 -5.554688 -2.171875 -5.078125 L -2.703125 -4.390625 L 0.359375 -2.078125 Z M 0.890625 -2.765625 "/></g></g></g><g fill="#ffffff" fill-opacity="1"><g transform="translate(136.180143, 14.639574)"><g><path d="M 1.046875 -1.5625 L 0.421875 -0.625 L -4.359375 -3.8125 L -3.734375 -4.75 Z M 1.046875 -1.5625 "/></g></g></g><g fill="#ffffff" fill-opacity="1"><g transform="translate(137.75418, 12.344027)"><g><path d="M 0.390625 -0.640625 L -4.546875 -3.578125 L -3.375 -5.5625 C -3.070312 -6.070312 -2.722656 -6.382812 -2.328125 -6.5 C -1.941406 -6.625 -1.539062 -6.5625 -1.125 -6.3125 C -0.820312 -6.132812 -0.625 -5.914062 -0.53125 -5.65625 C -0.4375 -5.394531 -0.425781 -5.078125 -0.5 -4.703125 L -0.421875 -4.671875 C -0.253906 -4.785156 -0.0820312 -4.847656 0.09375 -4.859375 C 0.28125 -4.878906 0.53125 -4.851562 0.84375 -4.78125 L 2.609375 -4.40625 L 2.015625 -3.40625 L 0.25 -3.796875 C 0.0820312 -3.828125 -0.0625 -3.835938 -0.1875 -3.828125 C -0.3125 -3.816406 -0.421875 -3.773438 -0.515625 -3.703125 C -0.609375 -3.628906 -0.703125 -3.515625 -0.796875 -3.359375 L -1.109375 -2.828125 L 0.953125 -1.609375 Z M -1.34375 -4.203125 C -1.0625 -4.660156 -1.144531 -5.019531 -1.59375 -5.28125 C -2.039062 -5.539062 -2.40625 -5.441406 -2.6875 -4.984375 L -3.21875 -4.078125 L -1.875 -3.296875 Z M -1.34375 -4.203125 "/></g></g></g><g fill="#ffffff" fill-opacity="1"><g transform="translate(140.537779, 7.57637)"><g><path d="M 0.875 -1.65625 L 0.34375 -0.671875 L -4.75 -3.34375 L -4.21875 -4.328125 Z M 0.875 -1.65625 "/></g></g></g></g></g><g clip-path="url(#58cfe10ed6)"><g clip-path="url(#e61ba0dbab)"><g transform="matrix(1, 0, 0, 1, 1, 70)"><g clip-path="url(#a33a63f7a1)"><g clip-path="url(#080699a6ef)"><g clip-path="url(#9149cfcbfd)"><g clip-path="url(#cda16e1297)"><path fill="#ffaf00" d="M 10.003906 6.960938 L 14.132812 4.007812 L 13.964844 9.082031 L 18.050781 12.09375 L 13.175781 13.503906 C 12.429688 15.128906 12.195312 19.847656 12.195312 19.847656 C 12.191406 19.800781 11.707031 14.683594 12.164062 12.453125 L 15.179688 11.582031 L 12.652344 9.71875 L 12.753906 6.578125 L 10.203125 8.40625 L 7.25 7.339844 L 8.199219 10.332031 L 6.273438 12.8125 L 9.410156 12.832031 C 10.921875 20.804688 13.746094 27.75 13.746094 27.75 C 13.746094 27.75 11.203125 23.226562 8.722656 14.117188 L 3.644531 14.082031 L 6.761719 10.074219 L 5.230469 5.234375 Z M 10.003906 6.960938 " fill-opacity="1" fill-rule="nonzero"/></g></g></g></g></g></g></g><g clip-path="url(#ca3c5c5a35)"><path fill="#1a5d94" d="M 84.746094 121.929688 L 86.023438 101.167969 C 86.023438 101.167969 98.675781 76.507812 124.964844 90.90625 L 117.65625 113.03125 C 117.65625 113.03125 97.820312 109.324219 84.746094 128.234375 C 71.671875 109.324219 51.835938 113.03125 51.835938 113.03125 L 44.527344 90.90625 C 70.816406 76.507812 83.46875 101.167969 83.46875 101.167969 Z M 84.746094 121.929688 " fill-opacity="1" fill-rule="evenodd"/></g><path fill="#e4e4e4" d="M 82.976562 96.605469 C 82.976562 96.605469 71.132812 77.386719 47.355469 87.289062 L 50.257812 82.066406 C 50.257812 82.066406 72.421875 76.414062 82.976562 96.605469 Z M 86.515625 96.605469 C 86.515625 96.605469 98.359375 77.386719 122.136719 87.289062 L 119.234375 82.066406 C 119.234375 82.066406 97.070312 76.414062 86.515625 96.605469 Z M 86.515625 96.605469 " fill-opacity="1" fill-rule="evenodd"/><path fill="#ffaf00" d="M 55.984375 79.121094 C 56.367188 79.3125 71.304688 77.269531 82.472656 91.632812 C 82.472656 91.632812 76.601562 79.375 61.921875 75.546875 Z M 113.507812 79.121094 C 113.125 79.3125 98.1875 77.269531 87.019531 91.632812 C 87.019531 91.632812 92.890625 79.375 107.570312 75.546875 Z M 113.507812 79.121094 " fill-opacity="1" fill-rule="evenodd"/><g clip-path="url(#e70640140a)"><path fill="#1a5d94" d="M 84.746094 59.960938 C 88.0625 59.960938 91.0625 61.304688 93.238281 63.476562 C 95.410156 65.648438 96.753906 68.652344 96.753906 71.96875 C 96.753906 75.285156 95.410156 78.289062 93.238281 80.460938 C 91.449219 82.246094 89.101562 83.472656 86.480469 83.851562 L 85.625 91.566406 L 84.746094 99.472656 L 83.867188 91.566406 L 83.011719 83.851562 C 80.390625 83.472656 78.042969 82.246094 76.253906 80.460938 C 74.082031 78.289062 72.738281 75.285156 72.738281 71.96875 C 72.738281 68.652344 74.082031 65.648438 76.253906 63.476562 C 78.425781 61.304688 81.429688 59.960938 84.746094 59.960938 Z M 80.945312 71.96875 C 80.945312 71.355469 80.957031 70.75 80.984375 70.160156 C 79.488281 70.277344 78.140625 70.460938 77.015625 70.695312 C 76.980469 71.113281 76.964844 71.539062 76.964844 71.96875 C 76.964844 72.398438 76.980469 72.824219 77.015625 73.246094 C 78.140625 73.476562 79.488281 73.660156 80.984375 73.777344 C 80.957031 73.1875 80.945312 72.582031 80.945312 71.96875 Z M 81.050781 69.007812 C 81.15625 67.621094 81.328125 66.332031 81.5625 65.195312 C 80.28125 65.453125 79.105469 65.859375 78.074219 66.386719 C 77.660156 67.339844 77.351562 68.386719 77.167969 69.5 C 78.296875 69.285156 79.613281 69.113281 81.050781 69.007812 Z M 81.84375 63.976562 L 81.910156 63.730469 C 82.167969 62.820312 82.476562 62.046875 82.828125 61.441406 C 81.476562 61.921875 80.265625 62.898438 79.300781 64.222656 C 79.171875 64.394531 79.050781 64.574219 78.933594 64.757812 C 79.835938 64.417969 80.816406 64.152344 81.84375 63.976562 Z M 86.664062 61.441406 C 87.015625 62.046875 87.324219 62.820312 87.578125 63.730469 L 87.648438 63.976562 C 88.675781 64.152344 89.65625 64.417969 90.558594 64.757812 C 90.441406 64.574219 90.320312 64.394531 90.191406 64.222656 C 89.226562 62.898438 88.015625 61.921875 86.664062 61.441406 Z M 87.929688 65.195312 C 88.164062 66.332031 88.335938 67.621094 88.441406 69.007812 C 89.878906 69.113281 91.195312 69.285156 92.324219 69.5 C 92.140625 68.386719 91.832031 67.339844 91.417969 66.386719 C 90.386719 65.859375 89.210938 65.453125 87.929688 65.195312 Z M 88.507812 70.160156 C 88.535156 70.75 88.546875 71.355469 88.546875 71.96875 C 88.546875 72.582031 88.535156 73.1875 88.507812 73.777344 C 90.003906 73.660156 91.351562 73.476562 92.476562 73.246094 C 92.511719 72.824219 92.527344 72.398438 92.527344 71.96875 C 92.527344 71.539062 92.511719 71.113281 92.476562 70.695312 C 91.351562 70.460938 90.003906 70.277344 88.507812 70.160156 Z M 88.441406 74.929688 C 88.335938 76.316406 88.164062 77.605469 87.929688 78.742188 C 89.210938 78.484375 90.386719 78.078125 91.417969 77.550781 C 91.832031 76.597656 92.140625 75.550781 92.324219 74.4375 C 91.195312 74.65625 89.878906 74.824219 88.441406 74.929688 Z M 87.648438 79.960938 L 87.578125 80.210938 C 87.324219 81.117188 87.015625 81.890625 86.664062 82.496094 C 88.015625 82.015625 89.226562 81.039062 90.191406 79.71875 C 90.320312 79.542969 90.441406 79.363281 90.558594 79.179688 C 89.65625 79.519531 88.675781 79.785156 87.648438 79.960938 Z M 82.828125 82.496094 C 82.476562 81.890625 82.167969 81.117188 81.910156 80.210938 L 81.84375 79.960938 C 80.816406 79.785156 79.835938 79.519531 78.933594 79.179688 C 79.050781 79.363281 79.171875 79.542969 79.300781 79.71875 C 80.265625 81.039062 81.476562 82.015625 82.828125 82.496094 Z M 81.5625 78.742188 C 81.328125 77.605469 81.15625 76.316406 81.050781 74.929688 C 79.613281 74.824219 78.296875 74.65625 77.167969 74.4375 C 77.351562 75.550781 77.660156 76.597656 78.074219 77.550781 C 79.105469 78.078125 80.28125 78.484375 81.5625 78.742188 Z M 82.773438 65 C 82.515625 66.148438 82.320312 67.480469 82.207031 68.9375 C 83.027344 68.894531 83.875 68.875 84.746094 68.875 C 85.617188 68.875 86.46875 68.894531 87.285156 68.9375 C 87.171875 67.480469 86.976562 66.148438 86.71875 65 C 86.078125 64.921875 85.421875 64.882812 84.746094 64.882812 C 84.070312 64.882812 83.414062 64.921875 82.773438 65 Z M 82.136719 70.085938 C 82.105469 70.699219 82.089844 71.328125 82.089844 71.96875 C 82.089844 72.609375 82.105469 73.238281 82.136719 73.851562 C 82.972656 73.894531 83.847656 73.917969 84.746094 73.917969 C 85.644531 73.917969 86.519531 73.894531 87.355469 73.851562 C 87.386719 73.238281 87.402344 72.609375 87.402344 71.96875 C 87.402344 71.328125 87.386719 70.699219 87.355469 70.085938 C 86.519531 70.042969 85.644531 70.019531 84.746094 70.019531 C 83.847656 70.019531 82.972656 70.042969 82.136719 70.085938 Z M 82.207031 75 C 82.320312 76.457031 82.515625 77.789062 82.773438 78.9375 C 83.414062 79.015625 84.070312 79.054688 84.746094 79.054688 C 85.421875 79.054688 86.078125 79.015625 86.71875 78.9375 C 86.976562 77.789062 87.171875 76.457031 87.285156 75 C 86.46875 75.042969 85.617188 75.0625 84.746094 75.0625 C 83.875 75.0625 83.027344 75.042969 82.207031 75 Z M 83.078125 80.125 C 83.578125 81.800781 84.167969 82.832031 84.746094 82.832031 C 85.324219 82.832031 85.914062 81.800781 86.414062 80.125 C 85.867188 80.175781 85.3125 80.203125 84.746094 80.203125 C 84.179688 80.203125 83.625 80.175781 83.078125 80.125 Z M 86.414062 63.8125 C 85.914062 62.136719 85.324219 61.105469 84.746094 61.105469 C 84.167969 61.105469 83.578125 62.136719 83.078125 63.8125 C 83.625 63.761719 84.179688 63.738281 84.746094 63.738281 C 85.3125 63.738281 85.867188 63.761719 86.414062 63.8125 Z M 75.816406 71.96875 C 75.816406 71.632812 75.828125 71.300781 75.847656 70.972656 C 74.613281 71.304688 73.882812 71.652344 73.882812 71.96875 C 73.882812 72.285156 74.613281 72.636719 75.847656 72.964844 C 75.828125 72.636719 75.816406 72.304688 75.816406 71.96875 Z M 75.96875 69.765625 C 76.082031 68.933594 76.257812 68.136719 76.492188 67.375 C 75.367188 68.234375 74.550781 69.269531 74.15625 70.402344 C 74.648438 70.160156 75.257812 69.949219 75.96875 69.765625 Z M 77.1875 65.5625 C 77.53125 64.832031 77.929688 64.15625 78.375 63.546875 C 78.585938 63.257812 78.804688 62.984375 79.039062 62.726562 C 78.320312 63.171875 77.660156 63.695312 77.066406 64.289062 C 76.242188 65.113281 75.546875 66.070312 75.019531 67.125 C 75.417969 66.75 75.859375 66.402344 76.34375 66.078125 C 76.613281 65.898438 76.894531 65.726562 77.1875 65.5625 Z M 90.453125 62.726562 C 90.683594 62.984375 90.90625 63.257812 91.117188 63.546875 C 91.5625 64.15625 91.960938 64.832031 92.300781 65.5625 C 92.597656 65.726562 92.878906 65.898438 93.148438 66.078125 C 93.632812 66.402344 94.074219 66.75 94.472656 67.125 C 93.945312 66.070312 93.25 65.113281 92.425781 64.289062 C 91.832031 63.695312 91.171875 63.171875 90.453125 62.726562 Z M 93 67.375 C 93.234375 68.136719 93.410156 68.933594 93.527344 69.765625 C 94.234375 69.949219 94.84375 70.160156 95.335938 70.402344 C 94.941406 69.269531 94.125 68.234375 93 67.375 Z M 93.644531 70.972656 C 93.664062 71.300781 93.675781 71.632812 93.675781 71.96875 C 93.675781 72.304688 93.664062 72.636719 93.644531 72.964844 C 94.878906 72.636719 95.609375 72.285156 95.609375 71.96875 C 95.609375 71.652344 94.878906 71.304688 93.644531 70.972656 Z M 93.527344 74.175781 C 93.410156 75.003906 93.234375 75.800781 93 76.5625 C 94.125 75.703125 94.941406 74.671875 95.335938 73.535156 C 94.84375 73.777344 94.234375 73.988281 93.527344 74.175781 Z M 92.300781 78.375 C 91.960938 79.105469 91.5625 79.78125 91.117188 80.394531 C 90.90625 80.679688 90.683594 80.953125 90.453125 81.210938 C 91.171875 80.769531 91.832031 80.242188 92.425781 79.648438 C 93.25 78.824219 93.945312 77.867188 94.46875 76.8125 C 94.074219 77.1875 93.632812 77.539062 93.148438 77.859375 C 92.878906 78.042969 92.597656 78.214844 92.300781 78.375 Z M 79.039062 81.210938 C 78.808594 80.953125 78.585938 80.679688 78.375 80.394531 C 77.929688 79.78125 77.53125 79.105469 77.1875 78.375 C 76.894531 78.214844 76.613281 78.042969 76.34375 77.859375 C 75.859375 77.539062 75.417969 77.1875 75.019531 76.8125 C 75.546875 77.867188 76.242188 78.824219 77.066406 79.648438 C 77.660156 80.242188 78.320312 80.769531 79.039062 81.210938 Z M 76.492188 76.5625 C 76.257812 75.800781 76.082031 75.003906 75.96875 74.175781 C 75.257812 73.988281 74.648438 73.777344 74.15625 73.535156 C 74.550781 74.671875 75.367188 75.703125 76.492188 76.5625 Z M 76.492188 76.5625 " fill-opacity="1" fill-rule="nonzero"/></g><g transform="matrix(1, 0, 0, 1, 56, 19)"><g clip-path="url(#81555eadcc)"><g fill="#ffffff" fill-opacity="1"><g transform="translate(4.361203, 17.28536)"><g><path d="M 3.609375 -9.234375 L 6.328125 -2.59375 L 4.71875 -1.921875 L 3.59375 -4.65625 L 1.078125 -3.640625 L 2.203125 -0.90625 L 0.59375 -0.25 L -2.125 -6.890625 L -0.515625 -7.546875 L 0.546875 -4.9375 L 3.0625 -5.953125 L 2 -8.5625 Z M 3.609375 -9.234375 "/></g></g></g><g fill="#ffffff" fill-opacity="1"><g transform="translate(11.018391, 14.654841)"><g><path d="M 0.15625 -7.5625 L 2.265625 -0.703125 L 0.609375 -0.1875 L -1.5 -7.046875 Z M 0.15625 -7.5625 "/></g></g></g><g fill="#ffffff" fill-opacity="1"><g transform="translate(13.505223, 13.69226)"><g><path d="M 7.1875 -8.71875 L 8.578125 -1.6875 L 6.890625 -1.359375 L 6.0625 -5.578125 L 5.296875 -1.046875 L 3.921875 -0.765625 L 1.5 -4.6875 L 2.328125 -0.453125 L 0.625 -0.125 L -0.765625 -7.15625 L 1.265625 -7.546875 L 4.1875 -3.0625 L 5.1875 -8.328125 Z M 7.1875 -8.71875 "/></g></g></g><g fill="#ffffff" fill-opacity="1"><g transform="translate(22.232471, 12.006244)"><g><path d="M 5.03125 -1.53125 L 2.359375 -1.390625 L 2 -0.109375 L 0.15625 -0.015625 L 2.40625 -7.296875 L 4.421875 -7.40625 L 7.359375 -0.375 L 5.53125 -0.28125 Z M 4.515625 -2.84375 L 3.5 -5.4375 L 2.734375 -2.75 Z M 4.515625 -2.84375 "/></g></g></g><g fill="#ffffff" fill-opacity="1"><g transform="translate(29.350204, 11.655368)"><g><path d="M 3.234375 0.296875 C 2.703125 0.253906 2.234375 0.132812 1.828125 -0.0625 C 1.429688 -0.257812 1.117188 -0.53125 0.890625 -0.875 C 0.660156 -1.226562 0.550781 -1.640625 0.5625 -2.109375 L 2.421875 -1.984375 C 2.429688 -1.722656 2.507812 -1.515625 2.65625 -1.359375 C 2.8125 -1.210938 3.015625 -1.132812 3.265625 -1.125 C 3.515625 -1.101562 3.71875 -1.144531 3.875 -1.25 C 4.03125 -1.363281 4.113281 -1.523438 4.125 -1.734375 C 4.144531 -1.910156 4.097656 -2.0625 3.984375 -2.1875 C 3.867188 -2.3125 3.726562 -2.414062 3.5625 -2.5 C 3.40625 -2.59375 3.171875 -2.695312 2.859375 -2.8125 C 2.410156 -2.988281 2.039062 -3.148438 1.75 -3.296875 C 1.457031 -3.453125 1.21875 -3.675781 1.03125 -3.96875 C 0.84375 -4.269531 0.765625 -4.644531 0.796875 -5.09375 C 0.835938 -5.757812 1.113281 -6.265625 1.625 -6.609375 C 2.132812 -6.960938 2.773438 -7.113281 3.546875 -7.0625 C 4.328125 -7.007812 4.945312 -6.773438 5.40625 -6.359375 C 5.863281 -5.953125 6.085938 -5.410156 6.078125 -4.734375 L 4.1875 -4.859375 C 4.1875 -5.097656 4.113281 -5.285156 3.96875 -5.421875 C 3.832031 -5.566406 3.640625 -5.644531 3.390625 -5.65625 C 3.179688 -5.675781 3.003906 -5.628906 2.859375 -5.515625 C 2.722656 -5.410156 2.648438 -5.253906 2.640625 -5.046875 C 2.628906 -4.816406 2.726562 -4.628906 2.9375 -4.484375 C 3.144531 -4.347656 3.46875 -4.191406 3.90625 -4.015625 C 4.363281 -3.828125 4.734375 -3.648438 5.015625 -3.484375 C 5.296875 -3.316406 5.53125 -3.09375 5.71875 -2.8125 C 5.914062 -2.53125 6 -2.175781 5.96875 -1.75 C 5.9375 -1.332031 5.804688 -0.960938 5.578125 -0.640625 C 5.347656 -0.328125 5.03125 -0.0859375 4.625 0.078125 C 4.21875 0.253906 3.753906 0.328125 3.234375 0.296875 Z M 3.234375 0.296875 "/></g></g></g><g fill="#ffffff" fill-opacity="1"><g transform="translate(35.341647, 12.105433)"><g><path d="M 3.375 -6.75 L 2.34375 0.34375 L 0.640625 0.09375 L 1.671875 -7 Z M 3.375 -6.75 "/></g></g></g><g fill="#ffffff" fill-opacity="1"><g transform="translate(38.04525, 12.394957)"><g><path d="M 3.921875 -6.453125 L 2.9375 -2.265625 C 2.84375 -1.847656 2.875 -1.5 3.03125 -1.21875 C 3.1875 -0.945312 3.460938 -0.765625 3.859375 -0.671875 C 4.253906 -0.578125 4.582031 -0.617188 4.84375 -0.796875 C 5.113281 -0.972656 5.296875 -1.269531 5.390625 -1.6875 L 6.375 -5.875 L 8.078125 -5.46875 L 7.09375 -1.296875 C 6.945312 -0.679688 6.691406 -0.191406 6.328125 0.171875 C 5.960938 0.546875 5.53125 0.789062 5.03125 0.90625 C 4.53125 1.03125 4.003906 1.023438 3.453125 0.890625 C 2.898438 0.765625 2.429688 0.539062 2.046875 0.21875 C 1.671875 -0.101562 1.40625 -0.507812 1.25 -1 C 1.101562 -1.5 1.101562 -2.054688 1.25 -2.671875 L 2.234375 -6.84375 Z M 3.921875 -6.453125 "/></g></g></g><g fill="#ffffff" fill-opacity="1"><g transform="translate(44.62178, 13.831975)"><g><path d="M 10.765625 -3.5 L 8.15625 3.1875 L 6.53125 2.546875 L 8.09375 -1.453125 L 5.03125 1.96875 L 3.71875 1.453125 L 3.78125 -3.15625 L 2.21875 0.859375 L 0.59375 0.234375 L 3.203125 -6.453125 L 5.125 -5.703125 L 5.171875 -0.34375 L 8.859375 -4.25 Z M 10.765625 -3.5 "/></g></g></g></g></g></g></g></svg>